<?xml version="1.0" encoding="utf-8"?>
<!-- Generator: Adobe Illustrator 25.3.0, SVG Export Plug-In . SVG Version: 6.00 Build 0)  -->
<svg version="1.1" xmlns="http://www.w3.org/2000/svg" xmlns:xlink="http://www.w3.org/1999/xlink" x="0px" y="0px"
	 viewBox="0 0 443 82" style="enable-background:new 0 0 443 82;" xml:space="preserve">
<style type="text/css">
	.Ombre_x0020_portée{fill:none;}
	.Lueur_x0020_externe_x0020_5 pt{fill:none;}
	.Néon_x0020_bleu{fill:none;stroke:#8AACDA;stroke-width:7;stroke-linecap:round;stroke-linejoin:round;}
	.Ton_x0020_clair_x0020_chrome{fill:url(#SVGID_1_);stroke:#FFFFFF;stroke-width:0.3629;stroke-miterlimit:1;}
	.Swing_GS{fill:#FFDD00;}
	.Alysse_GS{fill:#A6D0E4;}
	.st0{fill:#EFA00B;}
	.st1{fill:#1B1B1B;}
	.st2{fill:#FBFFFE;}
</style>
<linearGradient id="SVGID_1_" gradientUnits="userSpaceOnUse" x1="0" y1="-18" x2="6.123234e-17" y2="-19">
	<stop  offset="0" style="stop-color:#656565"/>
	<stop  offset="0.618" style="stop-color:#1B1B1B"/>
	<stop  offset="0.6292" style="stop-color:#545454"/>
	<stop  offset="0.9831" style="stop-color:#3E3E3E"/>
</linearGradient>
<g id="fond">
	<rect class="st0" width="443" height="82"/>
</g>
<g id="Calque_1">
	<g>
		<path class="st1" d="M52.98,9v18.11H20.21v4.54h16.39v18.11H20.21v4.49h32.77v18.11L20.25,72.4H3.82v-1.19
			c-0.89-0.58-1.33-1.42-1.33-2.52V52.23c0-1.13,0.44-1.99,1.33-2.57v-6.78H3.2V42.1h0.62V15.33l3.61-3.99l-0.87-0.96l-2.74,2.98V9
			h16.39H52.98z M10.75,10.38l-6.76,7.47l0.87,0.96l6.8-7.47L10.75,10.38z M7.8,44.44v-0.78H5.19v-0.83H4.53v16.14h0.66V44.44H7.8z
			 M8.18,17.85l0.91,0.96l6.76-7.47l-0.87-1.01L8.18,17.85z M12.41,17.85l0.87,0.96l6.8-7.47l-0.91-1.01L12.41,17.85z M17.51,18.81
			l6.76-7.47l-0.87-1.01l-6.76,7.52L17.51,18.81z M31.86,60.39v4.22h3.28v-4.22H31.86z M36.43,60.39v4.22h1.95v-4.22H36.43z
			 M39.04,60.39v4.22h0.62v-4.22H39.04z M41.28,60.39v4.22h1.04v-4.22H41.28z M42.73,60.39v4.22h8.71v-4.22H42.73z M51.78,60.39
			v4.22h1.2v-4.22H51.78z"/>
	</g>
</g>
<g id="lec">
	<g>
		<path class="st2" d="M61.29,27.13l-0.07,0.03L63.29,47h-5.43V22.49c-0.33-0.11-0.59-0.33-0.8-0.65c-0.21-0.32-0.32-0.67-0.32-1.06
			v-9.86c0-0.38,0.11-0.73,0.32-1.04c0.21-0.31,0.48-0.52,0.8-0.63V9h9.63v16.51L61.29,27.13z M58.32,15.62v0.22h4v-2.47h-4v0.22
			h3.8v2.03H58.32z M86.74,41.56h2.68v1.73H77.21v0.93h9.53V47H67.48h-4.02l-2.05-19.67l6.07-1.59v6.37h-1.12v1.95h2.88v-4.95h0.78
			v4.95h3.68v0.77h-3.68v1.29l16.72,0.03V41.56z M69.24,36.12v-1.29h-1.75v1.29H69.24z"/>
		<path class="st2" d="M119.39,9v10.85h-19.25v2.72h9.63v10.85h-9.63v2.69h19.25v10.85L100.14,47h-9.63v-0.71
			c-0.52-0.35-0.78-0.85-0.78-1.51v-9.86c0-0.68,0.26-1.19,0.78-1.54v-4.07h-0.39v-0.47h0.39V12.79l2.1-2.39L92.1,9.82l-1.58,1.79V9
			h9.63H119.39z M94.58,9.82l-4,4.48l0.54,0.58l3.97-4.48L94.58,9.82z M92.85,30.24v-0.47h-1.54v-0.49H90.9v9.67h0.41v-8.71H92.85z
			 M93.07,14.3l0.51,0.58l4-4.48l-0.54-0.6L93.07,14.3z M95.56,14.3l0.51,0.58l3.97-4.48l-0.51-0.6L95.56,14.3z M98.53,14.88l4-4.48
			l-0.51-0.6l-4,4.51L98.53,14.88z M106.96,39.8v2.53h1.93V39.8H106.96z M109.67,39.8v2.53h1.15V39.8H109.67z M111.2,39.8v2.53h0.37
			V39.8H111.2z M112.52,39.8v2.53h0.61V39.8H112.52z M113.37,39.8v2.53h5.12V39.8H113.37z M118.69,39.8v2.53h0.68V39.8H118.69z"/>
		<path class="st2" d="M132.26,34.53c0.83,0.95,1.88,1.47,3.14,1.57l-4.53,9.95c-2.84-1.14-5.16-3.1-6.96-5.89
			c-1.8-2.79-2.69-5.94-2.69-9.44v-0.08h8.33v-0.91h-8.33V29.2h3.41v-1.04h-5.26v-1.04h1.85v-1.84c0-2.22,0.37-4.31,1.11-6.29
			c0.74-1.98,1.77-3.72,3.11-5.22c0.23-0.26,0.46-0.49,0.71-0.71l16.21,7.78l-1.9,4.23c-0.05-1.39-0.51-2.58-1.39-3.57
			c-0.94-1.06-2.08-1.59-3.41-1.59c-1.33,0-2.47,0.53-3.4,1.58c-0.93,1.05-1.4,2.33-1.4,3.83v5.41
			C130.85,32.19,131.32,33.46,132.26,34.53z M142.57,20.82l0.05-0.11l-16.33-7.8c2.7-2.6,5.82-3.9,9.36-3.9
			c2.81,0,5.41,0.86,7.8,2.58h-0.95l0.58,1.4l0.58-1.4l0.05-0.14l0.24,0.14l0.24-0.14l0.05,0.14l0.58,1.4l0.56-1.4l0.05-0.14
			l0.24,0.14l0.24-0.14l0.05,0.14l0.58,1.4l0.58-1.4l0.05-0.14l0.24,0.14l0.24,0.14l-0.24,0.58l-0.56,1.4l-0.32,0.71l-0.29-0.71
			l-0.58-1.4l-0.56,1.4h0.68c1.35,1.5,2.4,3.25,3.16,5.25c0.76,2,1.13,4.1,1.13,6.32l-9.58,0.03L142.57,20.82z M148.59,37.91h-4.14
			v1.9h3.19c-0.5,0.86-1.09,1.67-1.75,2.42c-1.33,1.5-2.88,2.67-4.64,3.52c-1.76,0.84-3.63,1.26-5.59,1.26
			c-1.51,0-3.05-0.29-4.61-0.88l4.56-10h0.05c1.33,0,2.47-0.53,3.4-1.58c0.93-1.05,1.4-2.33,1.4-3.83h9.65
			C150.1,33.2,149.6,35.6,148.59,37.91z M136.94,12.3v1.4h0.58L136.94,12.3z M137.23,11.58l0.58,1.4l0.58-1.4H137.23z M138.13,13.7
			h1.15l-0.58-1.4L138.13,13.7z M138.99,11.58l0.58,1.4l0.58-1.4H138.99z M139.86,13.7h1.17l-0.58-1.4L139.86,13.7z M140.74,11.58
			l0.58,1.4l0.58-1.4H140.74z M141.62,13.7h1.17l-0.58-1.4L141.62,13.7z M143.96,12.3l-0.58,1.4h1.15L143.96,12.3z M145.18,38.29
			H152v1.13h-6.82V38.29z M151.9,39.28v-0.85h-6.63v0.85H151.9z"/>
	</g>
</g>
<g id="T">
	<g>
		<path class="st1" d="M188.96,9h17.4v14.39h-12.39v3.48h-5.01v24.39h2.59v1.31h-3.25v3.17h0.66L189,71.57h-17.4v-6.33l-1.27,1.27
			l-1.98-2.04l3.25-3.3v-1.09l-1.27,1.31l-1.98-2.04l3.25-3.35v-1.09l-1.27,1.31l-1.98-2.04l3.25-3.3v-1.09l-1.27,1.31l-1.98-2.04
			l3.25-3.35v-1.09l-1.27,1.31l-1.98-2.04l3.25-3.35v-1.04l-1.27,1.31l-1.98-2.04l3.25-3.35v-1.09l-1.27,1.31l-1.98-2.04l3.25-3.35
			v-1.04l-1.27,1.27l-1.98-2.04l1.58-1.63h-15.64V9h17.31h4.57v3.71h5.67v0.72H161.8v2.94h20.04v1.04h1.45v-4.71h3.65V9H188.96z
			 M186.94,55.74v-3.17h-3.69v3.17H186.94z M206.36,26.87h-12.04V23.7h12.04V26.87z"/>
	</g>
</g>
<g id="avaux">
	<g>
		<path class="st2" d="M216.32,66.7h6.37v0.88h-1.49l1.24,4.42h-10.3l-3.04-10.83h-0.87v-0.85h0.62l-0.55-1.92h-3.21v-0.69h-2.86
			v0.82h0.55V72h-9.83v-4.78h-2.79v-1.29h2.79V46.47l-1.47-0.77l1.47-0.77V44.5l-1.47-0.77l1.47-0.74v-0.47l-1.47-0.74l1.47-0.77
			v-0.47l-1.47-0.74l1.47-0.77v-0.47l-1.47-0.74l1.47-0.77v-0.44l-1.47-0.77l1.47-0.77V34h18.44c3.15,0,5.82,1.26,8.01,3.79h-3.06
			v2.56h4.75c0.9,1.78,1.34,3.73,1.34,5.85c0,1.98-0.4,3.82-1.21,5.54c-0.81,1.71-1.9,3.14-3.3,4.27l2.86,10.19h-4.7v0.85h0.22V66.7
			z M192.95,67.05v-0.96h-2.64v0.96H192.95z M211.39,47.55c0.33,0,0.62-0.13,0.86-0.4c0.24-0.27,0.36-0.58,0.36-0.95
			c0-0.09-0.02-0.21-0.05-0.36l-0.15-0.17l-0.25-0.3l-0.55,0.63l-0.3-0.33l-0.3,0.33l-0.52-0.63l-0.52,0.63l-0.3-0.33l-0.3,0.33
			l-0.55-0.63l-0.2,0.25l-0.32,0.38l-0.6-0.63l0.35-0.41l0.22-0.25l-0.22-0.25c-0.03,0.11-0.05,0.19-0.05,0.25
			c0,0.02,0,0.04,0.01,0.07c0.01,0.03,0.01,0.05,0.01,0.07h-5.25v2.69H211.39z M208.88,43.75c-0.07,0-0.15,0.02-0.25,0.06l0.2,0.25
			l0.27-0.3H208.88z M209.67,44.41l-0.27,0.3l0.27,0.3l0.25-0.3L209.67,44.41z M210.77,43.75h-0.55l0.27,0.3L210.77,43.75z
			 M211.32,44.41l-0.25,0.3l0.25,0.3l0.27-0.3L211.32,44.41z M212.43,43.75h-0.55l0.27,0.3L212.43,43.75z M212.98,45.02l0.27-0.3
			l-0.27-0.3l-0.27,0.3L212.98,45.02z M214.08,43.75h-0.52l0.27,0.3L214.08,43.75z M213.55,45.68h0.52l-0.25-0.3L213.55,45.68z
			 M214.65,45.02l0.27-0.3l-0.27-0.3l-0.27,0.3L214.65,45.02z M221.02,68.4v-0.82h-4.7v-0.03h-1.39v0.85H221.02z M215.74,43.75
			h-0.52l0.25,0.3L215.74,43.75z M215.47,45.38l-0.25,0.3h0.52L215.47,45.38z M216.32,44.41l-0.27,0.3l0.27,0.3l0.25-0.3
			L216.32,44.41z M217.09,43.75h-0.22l0.27,0.3l0.22-0.25C217.26,43.77,217.17,43.75,217.09,43.75z M217.14,45.38l-0.27,0.3h0.22
			c0.08,0,0.17-0.02,0.27-0.05L217.14,45.38z M217.93,44.47l-0.22,0.25l0.22,0.25c0.02-0.06,0.02-0.14,0.02-0.25
			S217.95,44.52,217.93,44.47z"/>
		<path class="st2" d="M224.01,72l4.88-19.89l7.39,18.82l-0.87-1.48l-0.87,1.54l-0.05-0.08l-0.27,1.1H224.01z M251.03,62.16h2.99
			v2.36h-2.41l0.25,1.04h-3.88v-1.04h-0.2v1.26h4.13l1.52,6.21h-10.18l-0.6-2.42l-0.07-0.14l-0.9,1.54l-0.9-1.54l-0.9,1.51
			l-0.9-1.51l-0.9,1.54l-0.9-1.54l-0.77,1.32l-7.46-18.99l2.49-10.19l15.58,4.26L251.03,62.16z M245.3,38.78l1.67,6.84l-15.48-4.23
			l1.82-7.39h0.57h4.83h4.85h0.57l0.67,2.75l0.22-0.22l0.52,0.6l0.27-0.3l0.27-0.3l0.3,0.3l0.3-0.3l0.52,0.6l0.22-0.25l0.3-0.36
			l0.6,0.6l-0.35,0.41l-0.2,0.25l0.2,0.27l0.35,0.38l-0.6,0.63l-0.3-0.38l-0.22-0.25l-0.55,0.63l-0.27-0.3l-0.3,0.3l-0.55-0.63
			L245.3,38.78z M237.54,58.43h2.34l-0.55-2.28h-5.55v-0.06h-1.37v0.88h5.5L237.54,58.43z M233.56,54.77v0.85h0.22v-0.36h5.87v-0.5
			h-0.67l-0.27-1.1l-0.27,1.1H233.56z M238.14,38.07l0.2-0.27l-0.2-0.25c-0.03,0.11-0.05,0.19-0.05,0.25
			C238.09,37.87,238.1,37.96,238.14,38.07z M238.91,37.13l0.27-0.3h-0.22c-0.08,0-0.17,0.02-0.27,0.06L238.91,37.13z M238.96,38.78
			l0.22-0.03l-0.27-0.3l-0.22,0.25C238.83,38.75,238.93,38.78,238.96,38.78z M239.76,38.12l0.25-0.33l-0.25-0.3l-0.27,0.3
			L239.76,38.12z M240.58,37.13l0.27-0.3h-0.55L240.58,37.13z M240.3,38.78h0.55l-0.27-0.33L240.3,38.78z M241.4,38.12l0.27-0.33
			l-0.27-0.3l-0.25,0.3L241.4,38.12z M242.24,37.13l0.25-0.3h-0.52L242.24,37.13z M241.97,38.78h0.52l-0.25-0.33L241.97,38.78z
			 M243.06,38.12l0.27-0.33l-0.27-0.3l-0.27,0.3L243.06,38.12z M243.89,37.13l0.27-0.3h-0.52L243.89,37.13z M243.64,38.78h0.52
			l-0.27-0.33L243.64,38.78z M244.73,38.12l0.27-0.33l-0.27-0.3l-0.27,0.3L244.73,38.12z M246.4,37.49l-0.27,0.3l0.27,0.33
			l0.25-0.33L246.4,37.49z M253.81,64.33v-1.95h-2.74l0.22,0.93h-3.53v1.02h0.2v-0.82h3.38l0.2,0.82H253.81z"/>
		<path class="st2" d="M275.26,36.67h6.37v0.88h-6.37v-0.03h-1.37v0.85h4.65l-4.3,17.56c0.3,0.22,0.51,0.51,0.65,0.87
			c0.13,0.36,0.15,0.72,0.05,1.08l-0.77,3.21l-0.1,0.44l0.27,0.33l0.62-0.77l0.1-0.08l0.1,0.08l0.1-0.08l0.07,0.08l0.65,0.77
			l0.65-0.77l0.1-0.08l0.2,0.19l-0.1,0.11l-0.65,0.77l0.65,0.74l0.1,0.11l-0.2,0.22l-0.1-0.11l-0.65-0.74l-0.65,0.74l-0.07,0.11
			l-0.1-0.11l-0.1,0.11l-0.1-0.11l-0.62-0.74l-0.65,0.71v0.03l-1.05,4.37c-0.1,0.38-0.29,0.7-0.57,0.93
			c-0.28,0.24-0.61,0.37-0.97,0.38l-0.8,3.27h-0.57h-4.83h-4.85h-0.57l-7.91-32.39h5.5v-2.47h-6.12L250.18,34h10.2l4.03,16.29h-3.66
			v0.85H261v-0.36h5.85v-0.5h-1.44L269.41,34h10.2l-0.55,2.17h-4.03v0.85h0.22V36.67z M256.9,37.35v2.06h-5.37L251,37.35H256.9z
			 M265.68,52.49v-0.82h-4.7v-0.03h-1.37v0.85H265.68z M266.85,61.34v1.48l0.65-0.74L266.85,61.34z M268.32,61.12h-1.27l0.62,0.74
			L268.32,61.12z M267.05,63.04h1.27l-0.65-0.74L267.05,63.04z M267.87,62.08l0.65,0.74l0.65-0.74l-0.65-0.74L267.87,62.08z
			 M269.99,61.12h-1.29l0.65,0.74L269.99,61.12z M268.69,63.04h1.29l-0.65-0.74L268.69,63.04z M270.19,62.82l0.62-0.74l-0.62-0.74
			l-0.65,0.74L270.19,62.82z M271.65,61.12h-1.29l0.65,0.74L271.65,61.12z M270.36,63.04h1.29l-0.65-0.74L270.36,63.04z
			 M272.15,62.44l0.15-0.58l-0.47-0.52l-0.62,0.74l0.62,0.74L272.15,62.44z M272.37,61.53l0.1-0.41h-0.45L272.37,61.53z
			 M273.97,61.89l-0.13,0.52l0.3-0.33L273.97,61.89z M275.16,61.34l-0.65,0.74l0.65,0.74l0.65-0.74L275.16,61.34z"/>
		<path class="st2" d="M275.96,72l4.88-19.89l7.39,18.82l-0.87-1.48l-0.87,1.54l-0.05-0.08l-0.27,1.1H275.96z M302.98,62.16h2.99
			v2.36h-2.41l0.25,1.04h-3.88v-1.04h-0.2v1.26h4.13l1.52,6.21h-10.18l-0.6-2.42l-0.07-0.14l-0.9,1.54l-0.9-1.54l-0.9,1.51
			l-0.9-1.51l-0.9,1.54l-0.9-1.54l-0.77,1.32l-7.46-18.99l2.49-10.19l15.58,4.26L302.98,62.16z M297.26,38.78l1.67,6.84l-15.48-4.23
			l1.82-7.39h0.57h4.83h4.85h0.57l0.67,2.75l0.22-0.22l0.52,0.6l0.27-0.3l0.27-0.3l0.3,0.3l0.3-0.3l0.52,0.6l0.22-0.25l0.3-0.36
			l0.6,0.6l-0.35,0.41l-0.2,0.25l0.2,0.27l0.35,0.38l-0.6,0.63l-0.3-0.38l-0.22-0.25l-0.55,0.63l-0.27-0.3l-0.3,0.3l-0.55-0.63
			L297.26,38.78z M289.49,58.43h2.34l-0.55-2.28h-5.55v-0.06h-1.37v0.88h5.5L289.49,58.43z M285.51,54.77v0.85h0.22v-0.36h5.87v-0.5
			h-0.67l-0.27-1.1l-0.27,1.1H285.51z M290.09,38.07l0.2-0.27l-0.2-0.25c-0.03,0.11-0.05,0.19-0.05,0.25
			C290.04,37.87,290.06,37.96,290.09,38.07z M290.86,37.13l0.27-0.3h-0.22c-0.08,0-0.17,0.02-0.27,0.06L290.86,37.13z M290.91,38.78
			l0.22-0.03l-0.27-0.3l-0.22,0.25C290.79,38.75,290.88,38.78,290.91,38.78z M291.71,38.12l0.25-0.33l-0.25-0.3l-0.27,0.3
			L291.71,38.12z M292.53,37.13l0.27-0.3h-0.55L292.53,37.13z M292.25,38.78h0.55l-0.27-0.33L292.25,38.78z M293.35,38.12l0.27-0.33
			l-0.27-0.3l-0.25,0.3L293.35,38.12z M294.2,37.13l0.25-0.3h-0.52L294.2,37.13z M293.92,38.78h0.52l-0.25-0.33L293.92,38.78z
			 M295.02,38.12l0.27-0.33l-0.27-0.3l-0.27,0.3L295.02,38.12z M295.84,37.13l0.27-0.3h-0.52L295.84,37.13z M295.59,38.78h0.52
			l-0.27-0.33L295.59,38.78z M296.68,38.12l0.27-0.33l-0.27-0.3l-0.27,0.3L296.68,38.12z M298.35,37.49l-0.27,0.3l0.27,0.33
			l0.25-0.33L298.35,37.49z M305.77,64.33v-1.95h-2.74l0.22,0.93h-3.53v1.02h0.2v-0.82h3.38l0.2,0.82H305.77z"/>
		<path class="st2" d="M338.19,51.67v1.73h-6.07v0.93h3.48v1.37c0,2.22-0.38,4.31-1.13,6.29c-0.75,1.98-1.81,3.72-3.17,5.22
			c-1.36,1.5-2.94,2.68-4.73,3.52c-1.79,0.84-3.69,1.26-5.7,1.26c-3.02,0-5.79-0.95-8.31-2.86v1.87h-0.2v-4.53h-0.72v1.92
			c-1.71-1.54-3.06-3.41-4.04-5.6c-0.99-2.2-1.48-4.56-1.48-7.09V39.44h3.73v-0.93h-6.1v-1.73h2.36V34h9.83v21.71
			c0,1.48,0.48,2.76,1.44,3.82c0.96,1.06,2.12,1.59,3.48,1.59c1.36,0,2.52-0.53,3.47-1.58c0.95-1.05,1.43-2.33,1.43-3.83v-9.7
			l-0.08,0.08l-0.27-0.33l-0.25-0.3l-0.27,0.3l-0.27,0.33l-0.3-0.33l-0.3,0.33l-0.25-0.33l-0.27-0.3l-0.22,0.25l-0.32,0.38
			l-0.3-0.33l-0.27-0.3l0.32-0.41l0.22-0.25l-0.22-0.25l-0.32-0.41l0.27-0.3l0.3-0.33l0.32,0.38l0.22,0.25l0.52-0.63l0.3,0.33
			l0.3-0.33l0.55,0.63l0.52-0.63l0.08,0.08V34h9.83v17.67H338.19z M317.78,69v-2.53h-5.23V69H317.78z M318.65,69v-2.53h-0.62V69
			H318.65z M320,69v-2.53h-0.37V69H320z M321.57,69v-2.53h-1.17V69H321.57z M324.33,69v-2.53h-1.97V69H324.33z M324.33,45.1
			l0.27-0.3l-0.27-0.3l-0.27,0.3L324.33,45.1z M325.99,45.1l0.27-0.3l-0.27-0.3l-0.27,0.3L325.99,45.1z M326.82,44.14l0.27-0.3
			h-0.52L326.82,44.14z M326.57,45.76h0.52l-0.27-0.3L326.57,45.76z M327.66,45.1l0.25-0.3l-0.25-0.3l-0.27,0.3L327.66,45.1z
			 M328.48,44.14l0.27-0.3h-0.55L328.48,44.14z M328.21,45.76h0.55l-0.27-0.3L328.21,45.76z M329.3,45.1l0.27-0.3l-0.27-0.3
			l-0.25,0.3L329.3,45.1z M330.15,44.14l0.27-0.3h-0.55L330.15,44.14z M329.88,45.76h0.55l-0.27-0.3L329.88,45.76z M330.97,45.1
			l0.27-0.3l-0.27-0.3l-0.27,0.3L330.97,45.1z M331.82,44.14l0.2-0.25c-0.1-0.04-0.18-0.05-0.25-0.05h-0.22L331.82,44.14z
			 M331.77,45.76c0.07,0,0.15-0.02,0.25-0.06l-0.2-0.25l-0.27,0.3H331.77z M332.59,44.55l-0.22,0.25l0.22,0.25
			c0.03-0.11,0.05-0.19,0.05-0.25C332.64,44.74,332.62,44.66,332.59,44.55z"/>
		<path class="st2" d="M339.21,38.01v-1.92h-1.82v-0.8h0.8L337.57,34h1.64h0.8h8.71l3.56,7.42l3.58-7.42h8.21l-19.23,15.06
			L340,39.08v1.95h-0.8V38.01z M358.47,65.32v2.5h6.52L367,72l-11.15-0.03l-3.56-7.39l-3.58,7.39L346.52,72l-3.48-10.41h-0.2
			L346.32,72h-8.76l5.03-10.41h-2.74v-0.88h3.13l3.73-7.72l-1.82-3.74L364.36,34H367l-8.63,17.94h-1.17l0.6,1.4l0.57-1.4l0.08-0.14
			l0.25,0.14l0.25-0.14l0.05,0.14l0.6,1.4l0.57-1.4l0.05-0.14l0.5,0.25l-0.25,0.6l-0.57,1.4l-0.3,0.71l-0.3-0.71l-0.6-1.4l-0.6,1.4
			h0.27l5.42,11.27H358.47z M340,36.09v1.92h2.09v-1.92H340z M349.76,52.66v1.4h0.6L349.76,52.66z M350.06,51.94l0.6,1.4l0.57-1.4
			H350.06z M350.95,54.06h1.17l-0.57-1.4L350.95,54.06z M351.85,51.94l0.57,1.4l0.6-1.4H351.85z M352.74,54.06h1.17l-0.6-1.4
			L352.74,54.06z M353.61,51.94l0.6,1.4l0.6-1.4H353.61z M354.51,54.06h1.2l-0.6-1.4L354.51,54.06z M355.4,51.94l0.6,1.4l0.6-1.4
			H355.4z M356.3,54.06h1.19l-0.6-1.4L356.3,54.06z M358.66,67.6v-2.06h5.23l0.99,2.06H358.66z"/>
	</g>
</g>
<g id="com">
	<g>
		<path class="st1" d="M379.77,65.51c-0.43-1.69-0.06-3.15,0.89-3.52c0.95-0.37,1.91,0.56,2.34,2.26c0.42,1.65,0.11,3.13-0.89,3.52
			C381.17,68.14,380.2,67.16,379.77,65.51z"/>
		<path class="st1" d="M388.38,53.61c0.65,0.6,1.33,0.8,2.04,0.61l-0.4,9.05c-1.79-0.32-3.46-1.42-5.02-3.31
			c-1.56-1.89-2.71-4.26-3.44-7.1l-0.02-0.07l4.54-1.77l-0.19-0.74l-4.54,1.77l-0.11-0.42l1.86-0.73l-0.22-0.85l-2.87,1.12
			l-0.22-0.85l1.01-0.39l-0.38-1.5c-0.46-1.8-0.7-3.59-0.71-5.35c-0.01-1.77,0.19-3.4,0.6-4.91c0.07-0.26,0.15-0.5,0.24-0.73
			l10.45,2.88l-0.15,3.84c-0.32-1.12-0.82-1.99-1.5-2.61c-0.73-0.66-1.47-0.85-2.19-0.57c-0.73,0.28-1.23,0.95-1.52,2.01
			c-0.29,1.06-0.28,2.19,0.04,3.42l1.13,4.4C387.12,52.01,387.64,52.95,388.38,53.61z M391.14,40.27l0-0.1l-10.53-2.88
			c0.93-2.69,2.36-4.41,4.29-5.16c1.53-0.6,3.13-0.45,4.79,0.44l-0.52,0.2l0.61,1.02l0.03-1.26l0-0.12l0.16,0.06l0.1-0.16l0.06,0.1
			l0.61,1.02l0.01-1.26l0-0.12l0.16,0.06l0.1-0.16l0.06,0.1l0.61,1.02l0.03-1.26l0-0.12l0.16,0.06l0.16,0.06l-0.01,0.52l-0.01,1.26
			l-0.02,0.65l-0.31-0.52l-0.61-1.02l-0.01,1.26l0.37-0.15c1.05,0.94,1.99,2.13,2.81,3.6c0.83,1.46,1.47,3.1,1.93,4.9l-5.22,2.06
			L391.14,40.27z M386.29,34.54l0.29,1.14l0.32-0.12L386.29,34.54z M386.3,33.9l0.61,1.01l0.03-1.26L386.3,33.9z M387.24,35.42
			l0.62-0.24l-0.61-1.02L387.24,35.42z M387.26,33.52l0.61,1.02l0.03-1.26L387.26,33.52z M388.18,35.06l0.64-0.25l-0.61-1.02
			L388.18,35.06z M388.22,33.15l0.61,1.02l0.03-1.26L388.22,33.15z M389.14,34.68l0.64-0.25l-0.61-1.02L389.14,34.68z M390.12,33.05
			l-0.03,1.26l0.62-0.24L390.12,33.05z M397.98,52.89l-2.26,0.88l0.4,1.54l1.74-0.68c-0.1,0.81-0.25,1.59-0.45,2.34
			c-0.41,1.5-1.01,2.79-1.8,3.85c-0.79,1.06-1.71,1.8-2.78,2.22c-0.82,0.32-1.72,0.41-2.69,0.26l0.4-9.1l0.03-0.01
			c0.73-0.28,1.23-0.95,1.52-2.01c0.29-1.06,0.28-2.19-0.03-3.42l5.26-2.05C397.82,48.74,398.05,50.8,397.98,52.89z M396.2,53.93
			l3.72-1.45l0.23,0.92l-3.72,1.45L396.2,53.93z M400.07,53.3l-0.18-0.69l-3.61,1.41l0.18,0.69L400.07,53.3z"/>
		<path class="st1" d="M403.77,44.19c0.21,0.82,0.53,1.52,0.95,2.11c0.42,0.59,0.89,1,1.41,1.22l4.01,8.71
			c-0.04,0.01-0.1,0.04-0.18,0.09c-0.08,0.05-0.14,0.08-0.18,0.09c-1.56,0.61-3.16,0.46-4.79-0.45c-1.64-0.91-3.07-2.39-4.29-4.44
			l-3.6-14.03c-0.1,0.04-0.09,0.5,0.03,1.39c0.12,0.89,0.26,1.66,0.43,2.31l2.19,8.56c-0.51-1.11-0.92-2.28-1.23-3.5l-1.13-4.42
			c-0.46-1.79-0.69-3.58-0.69-5.38c0-1.8,0.19-3.43,0.59-4.88c0.4-1.45,0.99-2.71,1.79-3.79c0.79-1.08,1.72-1.83,2.79-2.24
			c1.36-0.53,2.77-0.48,4.22,0.15l-6.74,7l-0.03,0.04l3.43,7.44L403.77,44.19z M406.24,25.75c1.5,0.69,2.87,1.92,4.11,3.68
			c1.24,1.76,2.17,3.85,2.79,6.26l1.13,4.42c0.29,1.12,0.49,2.3,0.6,3.55l-2.55,1l0.52,2.01l2.11-0.82
			c-0.04,2.44-0.47,4.59-1.3,6.46c-0.83,1.87-1.96,3.16-3.4,3.88l-3.97-8.6c0.43,0.16,0.85,0.16,1.24,0.01
			c0.73-0.28,1.24-0.96,1.53-2.02c0.29-1.06,0.28-2.21-0.03-3.43l-1.13-4.42c-0.05-0.21-0.14-0.48-0.27-0.83l0.32-0.12l-0.5-0.47
			l-0.18,0.73l-0.03,0.11l-0.08-0.07l-0.03,0.11l-0.06-0.07l-0.5-0.47l-0.19,0.74l-0.03,0.11l-0.08-0.07l-0.03,0.11l-0.06-0.07
			l-0.5-0.47l-0.19,0.74l-0.02,0.1l-0.15-0.14l0.03-0.11l0.18-0.73l-0.49-0.47l-0.08-0.09l0.07-0.2l0.06,0.07l0.5,0.47l0.19-0.74
			l0.02-0.11l0.08,0.07l0.03-0.11l0.08,0.07l0.5,0.47l0.19-0.74l0.02-0.11l0.08,0.07l0.03-0.11c-0.39-0.49-0.82-0.83-1.28-1.02
			c-0.47-0.19-0.92-0.21-1.37-0.03c-0.71,0.28-1.21,0.93-1.5,1.95c-0.29,1.02-0.3,2.14-0.01,3.33l-3.15-6.83L406.24,25.75z
			 M406.21,37.24l0.19-0.74l-0.5-0.47l-0.19,0.74L406.21,37.24z M407.1,36.9l0.19-0.74l-0.5-0.47l-0.19,0.74L407.1,36.9z
			 M406.86,35.47l0.49,0.47l0.19-0.74L406.86,35.47z M407.49,36.08l0.5,0.47l0.19-0.74l-0.5-0.47L407.49,36.08z M408.42,34.86
			l-0.69,0.27l0.5,0.47L408.42,34.86z M408.13,36.69l0.69-0.27l-0.5-0.47L408.13,36.69z M408.38,35.73l0.5,0.47l0.18-0.73
			l-0.49-0.47L408.38,35.73z M409.31,34.51l-0.69,0.27l0.5,0.47L409.31,34.51z M409.02,36.34l0.69-0.27l-0.5-0.47L409.02,36.34z
			 M409.26,35.39l0.5,0.47l0.19-0.74l-0.5-0.47L409.26,35.39z M410.19,34.17l-0.68,0.26l0.5,0.47L410.19,34.17z M409.91,36
			l0.68-0.26l-0.49-0.47L409.91,36z M410.65,35.51l-0.31-1.21l-0.19,0.74L410.65,35.51z M412.9,46.46l-0.42-1.65l2.42-0.94
			c0.05,0.59,0.07,1.18,0.07,1.79L412.9,46.46z"/>
		<path class="st1" d="M422.33,34.4l-0.02,0.06l7.03,13.48l-0.08,0.77l-0.01,0.13l-0.04-0.03l-0.03,0.06l-0.07-0.1l-5.11-6.98
			l-3.71-5.07l1.74,6.77l-2.22,0.87l0.18,0.69l0.13-0.05l-0.07-0.29l3.4-1.33l0.18,0.71l-3.41,1.33l-0.01-0.02l-0.73,0.29l0.18,0.69
			l2.83-1.1l1.44,5.63l-5.25,2.05l-6.18-24.11L412.46,29l-0.21-0.19l-0.21-0.19l-0.07,0.3l-0.08,0.3l-0.22-0.18l-0.1,0.31
			l-0.41-0.38l-0.07,0.25l-0.1,0.36l-0.44-0.37l0.1-0.41l0.07-0.25l-0.18-0.18l-0.27-0.24l0.19-0.64l0.25,0.22l0.18,0.18l0.15-0.62
			l0.22,0.18l0.1-0.31l0.21,0.19l0.2,0.22l0.08-0.32l0.08-0.3l0.13,0.1l-1.28-4.98l5.25-2.05l0.01,0.02l7.89,10.76L422.33,34.4z
			 M411.53,28.51l0.08-0.3l-0.21-0.21l-0.08,0.33L411.53,28.51z M412.42,28.16l0.08-0.3l-0.21-0.21l-0.08,0.33L412.42,28.16z
			 M412.73,26.88L412.44,27l0.21,0.21L412.73,26.88z M412.85,28.58l0.29-0.11l-0.22-0.21L412.85,28.58z M413.31,27.81l0.07-0.3
			l-0.2-0.22l-0.08,0.33L413.31,27.81z M413.62,26.54l-0.29,0.11l0.21,0.21L413.62,26.54z M413.74,28.24l0.29-0.11l-0.22-0.21
			L413.74,28.24z M414.19,27.47l0.08-0.3l-0.21-0.21l-0.06,0.32L414.19,27.47z M414.5,26.19l-0.28,0.11l0.21,0.21L414.5,26.19z
			 M414.63,27.89l0.28-0.11l-0.2-0.22L414.63,27.89z M415.08,27.12l0.08-0.3l-0.21-0.21l-0.08,0.33L415.08,27.12z M415.23,25.91
			l-0.12,0.05l0.2,0.22l0.06-0.27C415.32,25.89,415.27,25.9,415.23,25.91z M415.64,27.49c0.04-0.01,0.08-0.05,0.12-0.1l-0.18-0.18
			l-0.06,0.32L415.64,27.49z M415.93,26.74c-0.01-0.1-0.01-0.17-0.03-0.21c-0.02-0.06-0.04-0.13-0.08-0.21l-0.06,0.27L415.93,26.74z
			 M436.59,29.33l0.37,1.43l-0.7,0.27l0.25,0.96l0.7-0.27l0.36,1.41l-0.7,0.27l0.25,0.96l0.7-0.27l0.36,1.41l-0.7,0.27l0.25,0.96
			l0.7-0.27l0.37,1.43l-0.7,0.27l0.25,0.96l0.7-0.27l0.36,1.41l-0.7,0.27l0.25,0.96l0.7-0.27l0.36,1.41l-0.7,0.27l0.47,1.83
			l-5.25,2.05l-3.64-14.21l-0.67,6.8l-0.84,8.37l-6.92-13.25l1.55-3.58l0.97,1.32l0.45-4.53l2.95-6.73l2.15-0.84l0.29,1.14
			l0.21-0.08l-0.66-2.59l-1.14,0.45l2.21-5.04l0.41-0.16l4.04,15.78L436.59,29.33z M425.99,21.89l2.2-0.86l-2.74,6.25L425.99,21.89z
			 M431.26,14.05l-2.21,5.04l-2.88,1.12l0.43-4.35L431.26,14.05z"/>
	</g>
</g>
</svg>
