<?xml version="1.0" encoding="utf-8"?>
<!-- Generator: Adobe Illustrator 25.3.0, SVG Export Plug-In . SVG Version: 6.00 Build 0)  -->
<svg version="1.1" xmlns="http://www.w3.org/2000/svg" xmlns:xlink="http://www.w3.org/1999/xlink" x="0px" y="0px"
	 viewBox="0 0 343.75 199.17" style="enable-background:new 0 0 343.75 199.17;" xml:space="preserve">
<style type="text/css">
	.Ombre_x0020_portée{fill:none;}
	.Lueur_x0020_externe_x0020_5 pt{fill:none;}
	.Néon_x0020_bleu{fill:none;stroke:#8AACDA;stroke-width:7;stroke-linecap:round;stroke-linejoin:round;}
	.Ton_x0020_clair_x0020_chrome{fill:url(#SVGID_1_);stroke:#FFFFFF;stroke-width:0.3629;stroke-miterlimit:1;}
	.Swing_GS{fill:#FFDD00;}
	.Alysse_GS{fill:#A6D0E4;}
	.st0{fill:#FBFFFE;}
	.st1{fill:#EFA00B;stroke:#272727;stroke-miterlimit:10;}
	.st2{fill:#272727;}
</style>
<linearGradient id="SVGID_1_" gradientUnits="userSpaceOnUse" x1="-89.7533" y1="-161.5" x2="-89.7533" y2="-162.5">
	<stop  offset="0" style="stop-color:#656565"/>
	<stop  offset="0.618" style="stop-color:#1B1B1B"/>
	<stop  offset="0.6292" style="stop-color:#545454"/>
	<stop  offset="0.9831" style="stop-color:#3E3E3E"/>
</linearGradient>
<g id="fond-logo">
	<rect x="0.25" y="0.5" class="st0" width="343" height="198"/>
</g>
<g id="forme-fond">
	<rect x="0.5" y="45.5" class="st1" width="126.77" height="152"/>
	<rect x="114.25" y="0.5" class="st1" width="229" height="164"/>
</g>
<g id="contour-bas-gauche">
</g>
<g id="Calque_7">
</g>
<g id="E">
	<g>
		<path class="st2" d="M105.25,17.5v39.56H41.97v9.91h31.64v39.56H41.97v9.81h63.28v39.56L41.97,156H10.33v-2.6
			c-1.71-1.27-2.56-3.1-2.56-5.51v-35.95c0-2.47,0.85-4.34,2.56-5.61V91.51H9.05v-1.7h1.28V31.32l6.89-8.71l-1.68-2.1l-5.21,6.51
			V17.5h31.64H105.25z M23.71,20.5L10.57,36.83l1.76,2.1l13.06-16.32L23.71,20.5z M18.02,94.91v-1.7h-5.05v-1.8h-1.36v35.25h1.36
			V94.91H18.02z M18.74,36.83l1.68,2.1l13.14-16.32l-1.76-2.2L18.74,36.83z M26.91,36.83l1.68,2.1l13.06-16.32l-1.68-2.2
			L26.91,36.83z M36.68,38.93l13.14-16.32l-1.68-2.2L35,36.83L36.68,38.93z M64.4,129.76v9.21h6.33v-9.21H64.4z M73.29,129.76v9.21
			h3.76v-9.21H73.29z M78.33,129.76v9.21h1.2v-9.21H78.33z M82.66,129.76v9.21h2v-9.21H82.66z M85.46,129.76v9.21h16.82v-9.21H85.46
			z M102.92,129.76v9.21h2.24v-9.21H102.92z"/>
	</g>
</g>
<g id="T">
	<g>
		<path class="st2" d="M236.26,20.94l42.32,10.17l-11.66,36.75l-30.14-7.24l-2.82,8.9l-12.18-2.93l-19.75,62.29l6.31,1.51
			l-1.06,3.35l-7.91-1.9l-2.57,8.09l1.6,0.38l-12.72,40.47l-42.32-10.17l5.13-16.18l-4.12,2.49l-3.16-6.36l10.58-6.54l0.88-2.77
			l-4.16,2.61l-3.16-6.36l10.62-6.65l0.88-2.77l-4.16,2.61l-3.16-6.36l10.58-6.54l0.88-2.77l-4.16,2.61l-3.16-6.36l10.62-6.65
			l0.88-2.77l-4.16,2.61l-3.16-6.36l10.62-6.65l0.84-2.66l-4.16,2.61l-3.16-6.36l10.62-6.65l0.88-2.77l-4.16,2.61l-3.16-6.36
			l10.62-6.65l0.84-2.66l-4.12,2.49l-3.16-6.36l5.17-3.24l-38.05-9.14l14.48-45.65l42.11,10.12l11.12,2.67l-3.01,9.48l13.79,3.31
			l-0.59,1.85L166.62,16.4l-2.38,7.51l48.73,11.71l-0.84,2.66l3.53,0.85l3.81-12.02l8.87,2.13l3.01-9.48L236.26,20.94z
			 M193.48,139.14l2.57-8.09l-8.98-2.16l-2.57,8.09L193.48,139.14z M264.1,76.76l-29.28-7.04l2.57-8.09l29.28,7.04L264.1,76.76z"/>
	</g>
</g>
<g id="lec">
	<g>
		<path class="st0" d="M12.08,174.11l-0.09,0.02l2.65,15.99H7.68v-19.75c-0.42-0.09-0.76-0.26-1.03-0.52
			c-0.27-0.26-0.41-0.54-0.41-0.85v-7.95c0-0.31,0.14-0.59,0.41-0.84c0.27-0.25,0.61-0.42,1.03-0.51v-0.2h12.33v13.31L12.08,174.11z
			 M8.28,164.84v0.18h5.12v-1.99H8.28v0.18h4.87v1.64H8.28z M44.67,185.74h3.43v1.4H32.46v0.75h12.2v2.24H20.01h-5.15l-2.62-15.86
			l7.77-1.28v5.14h-1.44v1.57h3.68v-3.99h1v3.99h4.71v0.62h-4.71v1.04l21.41,0.02V185.74z M22.26,181.36v-1.04h-2.25v1.04H22.26z"/>
		<path class="st0" d="M86.49,159.5v8.75H61.83v2.19h12.33v8.75H61.83v2.17h24.66v8.75l-24.66,0.02H49.5v-0.58
			c-0.67-0.28-1-0.69-1-1.22v-7.95c0-0.55,0.33-0.96,1-1.24v-3.28H49v-0.38h0.5v-12.93l2.68-1.93l-0.66-0.47l-2.03,1.44v-2.1h12.33
			H86.49z M54.72,160.16l-5.12,3.61l0.69,0.46l5.09-3.61L54.72,160.16z M52.5,176.62v-0.38h-1.97v-0.4H50v7.79h0.53v-7.02H52.5z
			 M52.78,163.77l0.66,0.46l5.12-3.61l-0.69-0.49L52.78,163.77z M55.96,163.77l0.66,0.46l5.09-3.61l-0.66-0.49L55.96,163.77z
			 M59.77,164.24l5.12-3.61l-0.66-0.49l-5.12,3.63L59.77,164.24z M70.57,184.32v2.04h2.47v-2.04H70.57z M74.03,184.32v2.04h1.47
			v-2.04H74.03z M76,184.32v2.04h0.47v-2.04H76z M77.69,184.32v2.04h0.78v-2.04H77.69z M78.78,184.32v2.04h6.55v-2.04H78.78z
			 M85.58,184.32v2.04h0.87v-2.04H85.58z"/>
		<path class="st0" d="M102.97,180.07c1.06,0.77,2.4,1.19,4.03,1.26l-5.81,8.02c-3.64-0.92-6.61-2.5-8.91-4.75
			c-2.3-2.25-3.45-4.79-3.45-7.61v-0.07H99.5v-0.73H88.83v-0.42h4.37v-0.84h-6.74v-0.84h2.37v-1.48c0-1.79,0.47-3.48,1.42-5.07
			c0.95-1.59,2.27-3,3.98-4.21c0.29-0.21,0.59-0.4,0.91-0.58l20.75,6.27l-2.43,3.41c-0.06-1.12-0.66-2.08-1.78-2.88
			c-1.21-0.86-2.66-1.28-4.37-1.28c-1.71,0-3.16,0.42-4.35,1.27c-1.2,0.85-1.79,1.88-1.79,3.09v4.36
			C101.16,178.19,101.76,179.22,102.97,180.07z M116.17,169.02l0.06-0.09l-20.91-6.29c3.45-2.1,7.45-3.14,11.98-3.14
			c3.6,0,6.93,0.69,9.99,2.08h-1.22l0.75,1.13l0.75-1.13l0.06-0.11l0.31,0.11l0.31-0.11l0.06,0.11l0.75,1.13l0.72-1.13l0.06-0.11
			l0.31,0.11l0.31-0.11l0.06,0.11l0.75,1.13l0.75-1.13l0.06-0.11l0.31,0.11l0.31,0.11l-0.31,0.46l-0.72,1.13l-0.41,0.58l-0.37-0.58
			l-0.75-1.13l-0.72,1.13h0.87c1.73,1.21,3.07,2.62,4.04,4.23c0.97,1.61,1.45,3.31,1.45,5.09l-12.27,0.02L116.17,169.02z
			 M123.88,182.8h-5.31v1.53h4.09c-0.65,0.69-1.39,1.34-2.25,1.95c-1.71,1.21-3.69,2.16-5.95,2.83c-2.26,0.68-4.65,1.02-7.16,1.02
			c-1.94,0-3.9-0.24-5.9-0.71l5.84-8.06h0.06c1.71,0,3.16-0.42,4.35-1.27c1.2-0.85,1.79-1.88,1.79-3.09h12.36
			C125.81,179,125.17,180.94,123.88,182.8z M108.96,162.16v1.13h0.75L108.96,162.16z M109.33,161.58l0.75,1.13l0.75-1.13H109.33z
			 M110.49,163.29h1.47l-0.75-1.13L110.49,163.29z M111.58,161.58l0.75,1.13l0.75-1.13H111.58z M112.7,163.29h1.5l-0.75-1.13
			L112.7,163.29z M113.83,161.58l0.75,1.13l0.75-1.13H113.83z M114.95,163.29h1.5l-0.75-1.13L114.95,163.29z M117.95,162.16
			l-0.75,1.13h1.47L117.95,162.16z M119.51,183.11h8.74v0.91h-8.74V183.11z M128.12,183.9v-0.69h-8.49v0.69H128.12z"/>
	</g>
	<g>
		<path d="M222.85,192.82c-0.27-1.45,0.84-2.71,2.65-3.04c1.81-0.33,3.24,0.46,3.5,1.92c0.26,1.41-0.73,2.69-2.65,3.04
			C224.54,195.07,223.11,194.24,222.85,192.82z"/>
		<path d="M241.74,182.47c0.98,0.51,2.13,0.67,3.46,0.5l-3.42,7.81c-3.09-0.25-5.74-1.18-7.96-2.79c-2.22-1.61-3.55-3.63-4-6.08
			l-0.01-0.06l8.63-1.58l-0.12-0.63l-8.63,1.58l-0.07-0.36l3.53-0.65l-0.13-0.73l-5.45,1l-0.13-0.73l1.92-0.35l-0.24-1.29
			c-0.28-1.55-0.17-3.08,0.34-4.6c0.51-1.52,1.36-2.93,2.55-4.23c0.2-0.22,0.42-0.43,0.64-0.63l17.77,2.35l-1.43,3.32
			c-0.23-0.96-0.86-1.71-1.89-2.23c-1.11-0.56-2.36-0.72-3.74-0.46c-1.38,0.25-2.49,0.83-3.32,1.75c-0.83,0.91-1.15,1.89-0.96,2.94
			l0.69,3.78C239.98,181.11,240.63,181.91,241.74,182.47z M250.65,170.94l0.04-0.09l-17.9-2.35c2.46-2.33,5.52-3.83,9.19-4.5
			c2.91-0.53,5.71-0.43,8.4,0.32l-0.98,0.18l0.79,0.87l0.43-1.09l0.03-0.11l0.27,0.05l0.23-0.14l0.07,0.09l0.79,0.87l0.4-1.08
			l0.03-0.11l0.27,0.05l0.24-0.14l0.07,0.09l0.79,0.87l0.43-1.09l0.03-0.11l0.27,0.05l0.27,0.05l-0.18,0.45l-0.4,1.08l-0.24,0.56
			l-0.39-0.44l-0.78-0.87l-0.4,1.08l0.71-0.13c1.59,0.79,2.9,1.81,3.94,3.07c1.04,1.25,1.7,2.65,1.98,4.2l-9.91,1.84L250.65,170.94z
			 M259.07,181.73l-4.29,0.79l0.24,1.32l3.3-0.61c-0.41,0.7-0.91,1.37-1.51,2.02c-1.19,1.3-2.64,2.41-4.36,3.34
			c-1.72,0.92-3.59,1.57-5.63,1.95c-1.56,0.29-3.19,0.37-4.88,0.26l3.44-7.85l0.05-0.01c1.38-0.25,2.48-0.84,3.32-1.75
			c0.83-0.91,1.15-1.89,0.96-2.94l9.99-1.83C260.03,178.15,259.82,179.92,259.07,181.73z M243.73,166.06l0.18,0.98l0.61-0.11
			L243.73,166.06z M243.95,165.51l0.79,0.87l0.42-1.09L243.95,165.51z M245.15,166.81l1.19-0.22l-0.79-0.87L245.15,166.81z
			 M245.76,165.17l0.79,0.87l0.43-1.09L245.76,165.17z M246.94,166.48l1.21-0.22l-0.79-0.87L246.94,166.48z M247.58,164.84
			l0.79,0.87l0.43-1.09L247.58,164.84z M248.76,166.15l1.21-0.22l-0.79-0.87L248.76,166.15z M251,164.73l-0.43,1.09l1.19-0.22
			L251,164.73z M255.59,182.64l7.06-1.3l0.14,0.79l-7.06,1.3L255.59,182.64z M262.68,182.06l-0.11-0.59l-6.86,1.26l0.11,0.59
			L262.68,182.06z"/>
		<path d="M272,174.16c0.13,0.7,0.48,1.31,1.06,1.81c0.58,0.5,1.29,0.85,2.15,1.04l4.55,7.45c-0.07,0.01-0.18,0.04-0.35,0.08
			c-0.17,0.04-0.28,0.07-0.35,0.08c-2.96,0.54-5.76,0.43-8.41-0.33c-2.64-0.76-4.75-2.02-6.32-3.77l-2.21-12.05
			c-0.19,0.03-0.3,0.43-0.35,1.2c-0.05,0.76-0.03,1.42,0.08,1.99l1.35,7.35c-0.58-0.95-0.96-1.95-1.15-3l-0.7-3.8
			c-0.28-1.54-0.16-3.08,0.38-4.63c0.53-1.55,1.37-2.95,2.51-4.21c1.14-1.25,2.58-2.35,4.32-3.29c1.74-0.94,3.62-1.6,5.64-1.96
			c2.59-0.48,5.08-0.45,7.47,0.08l-14.11,6.12l-0.07,0.03l3.88,6.37L272,174.16z M281.91,158.24c2.47,0.58,4.55,1.62,6.23,3.12
			c1.68,1.5,2.72,3.29,3.1,5.36l0.7,3.8c0.18,0.96,0.18,1.98,0.01,3.05l-4.84,0.89l0.32,1.73l4.01-0.74
			c-0.8,2.1-2.22,3.96-4.26,5.58s-4.45,2.75-7.21,3.39l-4.51-7.36c0.72,0.13,1.46,0.13,2.21-0.01c1.38-0.25,2.49-0.84,3.33-1.76
			c0.84-0.92,1.16-1.91,0.97-2.96l-0.7-3.8c-0.03-0.18-0.11-0.41-0.23-0.71l0.61-0.11l-0.75-0.4l-0.54,0.63l-0.09,0.1l-0.12-0.06
			l-0.09,0.1l-0.09-0.06l-0.75-0.4l-0.56,0.64l-0.09,0.09l-0.12-0.06l-0.09,0.1l-0.09-0.06l-0.75-0.4l-0.56,0.64l-0.06,0.09
			l-0.23-0.12l0.09-0.1l0.54-0.63l-0.73-0.4l-0.12-0.08l0.18-0.17l0.09,0.06l0.75,0.4l0.56-0.64l0.06-0.09l0.11,0.06l0.09-0.1
			l0.11,0.06l0.75,0.4l0.56-0.64l0.06-0.09l0.11,0.06l0.09-0.1c-0.54-0.42-1.21-0.7-1.98-0.87c-0.78-0.16-1.58-0.16-2.43-0.01
			c-1.35,0.25-2.43,0.81-3.26,1.7c-0.83,0.89-1.17,1.84-1.01,2.87l-3.58-5.85L281.91,158.24z M278.43,168.14l0.56-0.64l-0.75-0.4
			l-0.56,0.64L278.43,168.14z M280.12,167.83l0.56-0.64l-0.75-0.4l-0.56,0.64L280.12,167.83z M280.11,166.61l0.73,0.4l0.56-0.64
			L280.11,166.61z M281.06,167.12l0.75,0.4l0.56-0.64l-0.75-0.4L281.06,167.12z M283.08,166.06l-1.31,0.24l0.75,0.4L283.08,166.06z
			 M282.02,167.64l1.31-0.24l-0.75-0.4L282.02,167.64z M282.75,166.81l0.75,0.4l0.54-0.63l-0.72-0.4L282.75,166.81z M284.77,165.75
			l-1.31,0.24l0.75,0.4L284.77,165.75z M283.71,167.33l1.31-0.24l-0.75-0.4L283.71,167.33z M284.42,166.51l0.75,0.4l0.56-0.64
			l-0.75-0.4L284.42,166.51z M286.44,165.44l-1.29,0.24l0.75,0.4L286.44,165.44z M285.4,167.02l1.29-0.24l-0.73-0.4L285.4,167.02z
			 M286.86,166.6l-0.19-1.04l-0.56,0.64L286.86,166.6z M287.59,176l-0.26-1.42l4.59-0.84c-0.08,0.5-0.22,1.02-0.42,1.54L287.59,176z
			"/>
		<path d="M308.01,165.49l-0.04,0.05l8.5,11.53l-0.37,0.66l-0.06,0.11l-0.06-0.03l-0.07,0.05l-0.09-0.08l-7.01-5.95l-5.1-4.32
			l1.07,5.81l-4.21,0.77l0.11,0.59l0.25-0.05l-0.05-0.25l6.46-1.18l0.11,0.61l-6.48,1.19l0-0.02l-1.39,0.25l0.11,0.6l5.37-0.99
			l0.89,4.83l-9.96,1.83l-3.8-20.7l-0.16,0.15l-0.32-0.16l-0.32-0.16l-0.21,0.26l-0.24,0.26l-0.34-0.16l-0.26,0.27l-0.61-0.32
			l-0.2,0.21l-0.28,0.31l-0.68-0.31l0.3-0.35l0.2-0.21l-0.26-0.15l-0.4-0.2l0.52-0.55l0.37,0.19l0.26,0.15l0.45-0.54l0.34,0.16
			l0.26-0.27l0.32,0.16l0.29,0.18l0.24-0.28l0.24-0.26l0.2,0.08l-0.79-4.28l9.96-1.83l0,0.02l10.84,9.18L308.01,165.49z
			 M290.52,160.55l0.24-0.26l-0.32-0.18l-0.24,0.28L290.52,160.55z M292.21,160.24l0.24-0.26l-0.32-0.18l-0.23,0.28L292.21,160.24z
			 M293.15,159.14l-0.55,0.1l0.32,0.18L293.15,159.14z M292.85,160.6l0.55-0.1l-0.32-0.18L292.85,160.6z M293.9,159.93l0.21-0.26
			l-0.29-0.18l-0.24,0.28L293.9,159.93z M294.85,158.83l-0.55,0.1l0.32,0.18L294.85,158.83z M294.54,160.29l0.55-0.1l-0.32-0.18
			L294.54,160.29z M295.57,159.62l0.24-0.26l-0.32-0.18l-0.21,0.28L295.57,159.62z M296.51,158.52l-0.53,0.1l0.32,0.18
			L296.51,158.52z M296.23,159.98l0.53-0.1l-0.29-0.18L296.23,159.98z M297.26,159.31l0.24-0.26l-0.32-0.18l-0.23,0.28
			L297.26,159.31z M297.9,158.27l-0.23,0.04l0.29,0.18l0.19-0.23C298.05,158.25,297.97,158.25,297.9,158.27z M298.15,159.63
			c0.07-0.01,0.15-0.04,0.24-0.08l-0.26-0.15l-0.21,0.28L298.15,159.63z M298.89,158.98c0.02-0.08,0.03-0.14,0.02-0.18
			c-0.01-0.05-0.04-0.11-0.09-0.18l-0.19,0.23L298.89,158.98z M334.95,160.95l0.23,1.23l-1.34,0.25l0.15,0.83l1.34-0.25l0.22,1.21
			l-1.34,0.25l0.15,0.83l1.34-0.25l0.22,1.21l-1.34,0.25l0.15,0.82l1.34-0.25l0.22,1.23l-1.34,0.25l0.15,0.83l1.34-0.25l0.22,1.21
			l-1.34,0.25l0.15,0.82l1.34-0.25l0.22,1.21l-1.34,0.25l0.29,1.57l-9.96,1.83l-2.24-12.2l-3.23,5.87l-4,7.22l-8.36-11.33l3.84-3.1
			l1.33,1.12l2.15-3.9l7.27-5.84l4.09-0.75l0.18,0.98l0.4-0.07l-0.41-2.23l-2.17,0.4l5.46-4.37l0.78-0.14l2.48,13.54L334.95,160.95z
			 M318.28,154.67l4.19-0.77l-6.75,5.42L318.28,154.67z M330.02,147.85l-5.46,4.37l-5.47,1l2.08-3.75L330.02,147.85z"/>
	</g>
</g>
<g id="ravaux">
	<g>
		<path class="st0" d="M162.27,135.66h7.31v0.86h-1.71l1.43,4.35h-11.83l-3.48-10.65h-1v-0.84h0.71l-0.63-1.89h-3.68v-0.68h-3.28
			v0.81h0.63v13.24h-11.28v-4.7h-3.2v-1.27h3.2v-19.14l-1.69-0.76l1.69-0.76v-0.43l-1.69-0.76l1.69-0.73v-0.46l-1.69-0.73l1.69-0.76
			v-0.46l-1.69-0.73l1.69-0.76v-0.46l-1.69-0.73l1.69-0.76v-0.43l-1.69-0.76l1.69-0.76v-1.05h21.17c3.62,0,6.68,1.24,9.2,3.73h-3.51
			v2.51h5.46c1.03,1.75,1.54,3.67,1.54,5.76c0,1.95-0.46,3.76-1.39,5.45c-0.92,1.69-2.18,3.09-3.78,4.2l3.28,10.03h-5.4v0.84h0.26
			V135.66z M135.45,136.01v-0.95h-3.03v0.95H135.45z M156.61,116.82c0.38,0,0.71-0.13,0.99-0.39c0.28-0.26,0.41-0.57,0.41-0.93
			c0-0.09-0.02-0.21-0.06-0.35l-0.17-0.16l-0.29-0.3l-0.63,0.62l-0.34-0.32l-0.34,0.32l-0.6-0.62l-0.6,0.62l-0.34-0.32l-0.34,0.32
			l-0.63-0.62l-0.23,0.24l-0.37,0.38l-0.69-0.62l0.4-0.41l0.26-0.24l-0.26-0.24c-0.04,0.11-0.06,0.19-0.06,0.24
			c0,0.02,0,0.04,0.01,0.07c0.01,0.03,0.01,0.05,0.01,0.07h-6.03v2.65H156.61z M153.73,113.09c-0.08,0-0.17,0.02-0.29,0.05
			l0.23,0.24l0.31-0.3H153.73z M154.64,113.74l-0.31,0.3l0.31,0.3l0.29-0.3L154.64,113.74z M155.9,113.09h-0.63l0.31,0.3
			L155.9,113.09z M156.53,113.74l-0.29,0.3l0.29,0.3l0.31-0.3L156.53,113.74z M157.81,113.09h-0.63l0.31,0.3L157.81,113.09z
			 M158.44,114.34l0.31-0.3l-0.31-0.3l-0.31,0.3L158.44,114.34z M159.7,113.09h-0.6l0.31,0.3L159.7,113.09z M159.1,114.99h0.6
			l-0.29-0.3L159.1,114.99z M160.35,114.34l0.31-0.3l-0.31-0.3l-0.31,0.3L160.35,114.34z M167.67,137.34v-0.81h-5.4v-0.03h-1.6v0.84
			H167.67z M161.61,113.09h-0.6l0.29,0.3L161.61,113.09z M161.3,114.69l-0.29,0.3h0.6L161.3,114.69z M162.27,113.74l-0.31,0.3
			l0.31,0.3l0.29-0.3L162.27,113.74z M163.15,113.09h-0.26l0.31,0.3l0.26-0.24C163.35,113.11,163.25,113.09,163.15,113.09z
			 M163.21,114.69l-0.31,0.3h0.26c0.1,0,0.2-0.02,0.31-0.05L163.21,114.69z M164.12,113.8l-0.26,0.24l0.26,0.24
			c0.02-0.05,0.03-0.13,0.03-0.24S164.14,113.85,164.12,113.8z"/>
		<path class="st0" d="M171.09,140.88l5.6-19.57l8.48,18.51l-1-1.46l-1,1.51l-0.06-0.08l-0.31,1.08H171.09z M202.11,131.2h3.43v2.32
			h-2.77l0.29,1.03h-4.46v-1.03h-0.23v1.24h4.74l1.74,6.11h-11.68l-0.69-2.38l-0.09-0.14l-1.03,1.51l-1.03-1.51l-1.03,1.49
			l-1.03-1.49l-1.03,1.51l-1.03-1.51l-0.89,1.3l-8.57-18.68l2.86-10.03l17.88,4.19L202.11,131.2z M195.54,108.2l1.91,6.73
			l-17.77-4.16l2.09-7.27h0.66h5.54h5.57h0.66l0.77,2.7l0.26-0.22l0.6,0.59l0.31-0.3l0.31-0.3l0.34,0.3l0.34-0.3l0.6,0.59l0.26-0.24
			l0.34-0.35l0.69,0.59l-0.4,0.41l-0.23,0.24l0.23,0.27l0.4,0.38l-0.69,0.62l-0.34-0.38l-0.26-0.24l-0.63,0.62l-0.31-0.3l-0.34,0.3
			l-0.63-0.62L195.54,108.2z M186.63,127.53h2.69l-0.63-2.24h-6.37v-0.05h-1.57v0.86h6.31L186.63,127.53z M182.06,123.93v0.84h0.26
			v-0.35h6.74v-0.49h-0.77l-0.31-1.08l-0.31,1.08H182.06z M187.32,107.5l0.23-0.27l-0.23-0.24c-0.04,0.11-0.06,0.19-0.06,0.24
			C187.26,107.3,187.28,107.39,187.32,107.5z M188.2,106.58l0.31-0.3h-0.26c-0.1,0-0.2,0.02-0.31,0.05L188.2,106.58z M188.26,108.2
			l0.26-0.03l-0.31-0.3l-0.26,0.24C188.12,108.18,188.22,108.2,188.26,108.2z M189.17,107.55l0.29-0.32l-0.29-0.3l-0.31,0.3
			L189.17,107.55z M190.12,106.58l0.31-0.3h-0.63L190.12,106.58z M189.8,108.2h0.63l-0.31-0.32L189.8,108.2z M191.06,107.55
			l0.31-0.32l-0.31-0.3l-0.29,0.3L191.06,107.55z M192.03,106.58l0.29-0.3h-0.6L192.03,106.58z M191.72,108.2h0.6l-0.29-0.32
			L191.72,108.2z M192.97,107.55l0.31-0.32l-0.31-0.3l-0.31,0.3L192.97,107.55z M193.91,106.58l0.31-0.3h-0.6L193.91,106.58z
			 M193.63,108.2h0.6l-0.31-0.32L193.63,108.2z M194.89,107.55l0.31-0.32l-0.31-0.3l-0.31,0.3L194.89,107.55z M196.8,106.93
			l-0.31,0.3l0.31,0.32l0.29-0.32L196.8,106.93z M205.31,133.34v-1.92h-3.14l0.26,0.92h-4.06v1h0.23v-0.81h3.88l0.23,0.81H205.31z"
			/>
		<path class="st0" d="M229.93,106.12h7.31v0.87h-7.31v-0.03h-1.57v0.84h5.34l-4.94,17.27c0.34,0.22,0.59,0.5,0.74,0.85
			c0.15,0.35,0.17,0.71,0.06,1.07l-0.89,3.16l-0.11,0.43l0.31,0.32l0.71-0.76l0.11-0.08l0.11,0.08l0.11-0.08l0.09,0.08l0.74,0.76
			l0.74-0.76l0.11-0.08l0.23,0.19l-0.11,0.11l-0.74,0.76l0.74,0.73l0.11,0.11l-0.23,0.22l-0.11-0.11l-0.74-0.73l-0.74,0.73
			l-0.09,0.11l-0.11-0.11l-0.11,0.11l-0.11-0.11l-0.71-0.73l-0.74,0.7v0.03l-1.2,4.3c-0.11,0.38-0.33,0.69-0.66,0.92
			c-0.32,0.23-0.7,0.36-1.11,0.38l-0.91,3.22h-0.66h-5.54h-5.57h-0.66l-9.08-31.87h6.31v-2.43h-7.03l-0.89-3.08h11.71l4.63,16.03
			h-4.2v0.84h0.29v-0.35h6.71v-0.49h-1.66l4.6-16.03h11.71l-0.63,2.13h-4.63v0.84h0.26V106.12z M208.85,106.8v2.03h-6.17l-0.6-2.03
			H208.85z M218.94,121.69v-0.81h-5.4v-0.03h-1.57v0.84H218.94z M220.28,130.39v1.46l0.74-0.73L220.28,130.39z M221.96,130.17h-1.46
			l0.71,0.73L221.96,130.17z M220.51,132.07h1.46l-0.74-0.73L220.51,132.07z M221.45,131.12l0.74,0.73l0.74-0.73l-0.74-0.73
			L221.45,131.12z M223.88,130.17h-1.49l0.74,0.73L223.88,130.17z M222.39,132.07h1.49l-0.74-0.73L222.39,132.07z M224.11,131.85
			l0.71-0.73l-0.71-0.73l-0.74,0.73L224.11,131.85z M225.79,130.17h-1.49l0.74,0.73L225.79,130.17z M224.31,132.07h1.49l-0.74-0.73
			L224.31,132.07z M226.36,131.47l0.17-0.57l-0.54-0.51l-0.71,0.73l0.71,0.73L226.36,131.47z M226.62,130.58l0.11-0.41h-0.51
			L226.62,130.58z M228.45,130.93l-0.14,0.51l0.34-0.32L228.45,130.93z M229.82,130.39l-0.74,0.73l0.74,0.73l0.74-0.73
			L229.82,130.39z"/>
		<path class="st0" d="M230.73,140.88l5.6-19.57l8.48,18.51l-1-1.46l-1,1.51l-0.06-0.08l-0.31,1.08H230.73z M261.75,131.2h3.43v2.32
			h-2.77l0.29,1.03h-4.46v-1.03h-0.23v1.24h4.74l1.74,6.11h-11.68l-0.69-2.38l-0.09-0.14l-1.03,1.51l-1.03-1.51l-1.03,1.49
			l-1.03-1.49l-1.03,1.51l-1.03-1.51l-0.89,1.3l-8.57-18.68l2.86-10.03l17.88,4.19L261.75,131.2z M255.18,108.2l1.91,6.73
			l-17.77-4.16l2.09-7.27h0.66h5.54h5.57h0.66l0.77,2.7l0.26-0.22l0.6,0.59l0.31-0.3l0.31-0.3l0.34,0.3l0.34-0.3l0.6,0.59l0.26-0.24
			l0.34-0.35l0.69,0.59l-0.4,0.41l-0.23,0.24l0.23,0.27l0.4,0.38l-0.69,0.62l-0.34-0.38l-0.26-0.24l-0.63,0.62l-0.31-0.3l-0.34,0.3
			l-0.63-0.62L255.18,108.2z M246.27,127.53h2.69l-0.63-2.24h-6.37v-0.05h-1.57v0.86h6.31L246.27,127.53z M241.7,123.93v0.84h0.26
			v-0.35h6.74v-0.49h-0.77l-0.31-1.08l-0.31,1.08H241.7z M246.96,107.5l0.23-0.27l-0.23-0.24c-0.04,0.11-0.06,0.19-0.06,0.24
			C246.9,107.3,246.92,107.39,246.96,107.5z M247.84,106.58l0.31-0.3h-0.26c-0.1,0-0.2,0.02-0.31,0.05L247.84,106.58z M247.9,108.2
			l0.26-0.03l-0.31-0.3l-0.26,0.24C247.76,108.18,247.86,108.2,247.9,108.2z M248.81,107.55l0.29-0.32l-0.29-0.3l-0.31,0.3
			L248.81,107.55z M249.76,106.58l0.31-0.3h-0.63L249.76,106.58z M249.44,108.2h0.63l-0.31-0.32L249.44,108.2z M250.7,107.55
			l0.31-0.32l-0.31-0.3l-0.29,0.3L250.7,107.55z M251.67,106.58l0.29-0.3h-0.6L251.67,106.58z M251.36,108.2h0.6l-0.29-0.32
			L251.36,108.2z M252.61,107.55l0.31-0.32l-0.31-0.3l-0.31,0.3L252.61,107.55z M253.55,106.58l0.31-0.3h-0.6L253.55,106.58z
			 M253.27,108.2h0.6l-0.31-0.32L253.27,108.2z M254.53,107.55l0.31-0.32l-0.31-0.3l-0.31,0.3L254.53,107.55z M256.44,106.93
			l-0.31,0.3l0.31,0.32l0.29-0.32L256.44,106.93z M264.95,133.34v-1.92h-3.14l0.26,0.92h-4.06v1h0.23v-0.81h3.88l0.23,0.81H264.95z"
			/>
		<path class="st0" d="M302.17,120.88v1.7h-6.97v0.92h4v1.35c0,2.18-0.43,4.24-1.3,6.19c-0.87,1.95-2.08,3.66-3.64,5.13
			c-1.56,1.48-3.37,2.63-5.43,3.46c-2.06,0.83-4.24,1.24-6.54,1.24c-3.47,0-6.65-0.94-9.54-2.81v1.84h-0.23v-4.46h-0.83v1.89
			c-1.96-1.51-3.51-3.35-4.64-5.51c-1.13-2.16-1.7-4.49-1.7-6.97v-16h4.28v-0.92h-7v-1.7h2.71v-2.73h11.28v21.35
			c0,1.46,0.55,2.71,1.66,3.76c1.1,1.05,2.44,1.57,4,1.57c1.56,0,2.89-0.52,3.98-1.55c1.1-1.04,1.64-2.29,1.64-3.77v-9.54
			l-0.09,0.08l-0.31-0.32l-0.29-0.3l-0.31,0.3l-0.31,0.32l-0.34-0.32l-0.34,0.32l-0.29-0.32l-0.31-0.3l-0.26,0.24l-0.37,0.38
			l-0.34-0.32l-0.31-0.3l0.37-0.41l0.26-0.24l-0.26-0.24l-0.37-0.41l0.31-0.3l0.34-0.32l0.37,0.38l0.26,0.24l0.6-0.62l0.34,0.32
			l0.34-0.32l0.63,0.62l0.6-0.62l0.09,0.08v-9.43h11.28v17.38H302.17z M278.75,137.93v-2.49h-6v2.49H278.75z M279.75,137.93v-2.49
			h-0.71v2.49H279.75z M281.29,137.93v-2.49h-0.43v2.49H281.29z M283.09,137.93v-2.49h-1.34v2.49H283.09z M286.26,137.93v-2.49H284
			v2.49H286.26z M286.26,114.42l0.31-0.3l-0.31-0.3l-0.31,0.3L286.26,114.42z M288.17,114.42l0.31-0.3l-0.31-0.3l-0.31,0.3
			L288.17,114.42z M289.12,113.47l0.31-0.3h-0.6L289.12,113.47z M288.83,115.07h0.6l-0.31-0.3L288.83,115.07z M290.09,114.42
			l0.29-0.3l-0.29-0.3l-0.31,0.3L290.09,114.42z M291.03,113.47l0.31-0.3h-0.63L291.03,113.47z M290.72,115.07h0.63l-0.31-0.3
			L290.72,115.07z M291.97,114.42l0.31-0.3l-0.31-0.3l-0.29,0.3L291.97,114.42z M292.94,113.47l0.31-0.3h-0.63L292.94,113.47z
			 M292.63,115.07h0.63l-0.31-0.3L292.63,115.07z M293.89,114.42l0.31-0.3l-0.31-0.3l-0.31,0.3L293.89,114.42z M294.86,113.47
			l0.23-0.24c-0.11-0.04-0.21-0.05-0.29-0.05h-0.26L294.86,113.47z M294.8,115.07c0.08,0,0.17-0.02,0.29-0.05l-0.23-0.24l-0.31,0.3
			H294.8z M295.74,113.88l-0.26,0.24l0.26,0.24c0.04-0.11,0.06-0.19,0.06-0.24S295.78,113.99,295.74,113.88z"/>
		<path class="st0" d="M303.34,107.45v-1.89h-2.08v-0.78h0.91l-0.71-1.27h1.89h0.91h10l4.08,7.3l4.11-7.3h9.43l-22.08,14.81
			l-5.54-9.81v1.92h-0.91V107.45z M325.45,134.31v2.46h7.48l2.31,4.11l-12.8-0.03l-4.08-7.27l-4.11,7.27l-2.51,0.03l-4-10.24h-0.23
			l4,10.24h-10.05l5.77-10.24h-3.14v-0.87h3.6l4.28-7.59l-2.09-3.67l22.34-15h3.03l-9.91,17.65h-1.34l0.69,1.38l0.66-1.38l0.09-0.14
			l0.29,0.14l0.29-0.14l0.06,0.14l0.69,1.38l0.66-1.38l0.06-0.14l0.57,0.24l-0.29,0.59l-0.66,1.38l-0.34,0.7l-0.34-0.7l-0.69-1.38
			l-0.69,1.38h0.31l6.23,11.08H325.45z M304.26,105.55v1.89h2.4v-1.89H304.26z M315.45,121.85v1.38h0.69L315.45,121.85z
			 M315.8,121.15l0.69,1.38l0.66-1.38H315.8z M316.82,123.23h1.34l-0.66-1.38L316.82,123.23z M317.85,121.15l0.66,1.38l0.69-1.38
			H317.85z M318.88,123.23h1.34l-0.69-1.38L318.88,123.23z M319.88,121.15l0.69,1.38l0.69-1.38H319.88z M320.91,123.23h1.37
			l-0.69-1.38L320.91,123.23z M321.94,121.15l0.69,1.38l0.69-1.38H321.94z M322.96,123.23h1.37l-0.69-1.38L322.96,123.23z
			 M325.68,136.55v-2.03h6l1.14,2.03H325.68z"/>
	</g>
</g>
</svg>
