<?xml version="1.0" encoding="utf-8"?>
<!-- Generator: Adobe Illustrator 25.3.0, SVG Export Plug-In . SVG Version: 6.00 Build 0)  -->
<svg version="1.1" xmlns="http://www.w3.org/2000/svg" xmlns:xlink="http://www.w3.org/1999/xlink" x="0px" y="0px"
	 viewBox="0 0 364 205.26" style="enable-background:new 0 0 364 205.26;" xml:space="preserve">
<style type="text/css">
	.Ombre_x0020_portée{fill:none;}
	.Lueur_x0020_externe_x0020_5 pt{fill:none;}
	.Néon_x0020_bleu{fill:none;stroke:#8AACDA;stroke-width:7;stroke-linecap:round;stroke-linejoin:round;}
	.Ton_x0020_clair_x0020_chrome{fill:url(#SVGID_1_);stroke:#FFFFFF;stroke-width:0.3629;stroke-miterlimit:1;}
	.Swing_GS{fill:#FFDD00;}
	.Alysse_GS{fill:#A6D0E4;}
	.st0{fill:#FBFFFE;}
	.st1{fill:#EFA00B;stroke:#272727;stroke-miterlimit:10;}
	.st2{fill:#272727;}
</style>
<linearGradient id="SVGID_1_" gradientUnits="userSpaceOnUse" x1="-72" y1="-158" x2="-72" y2="-159">
	<stop  offset="0" style="stop-color:#656565"/>
	<stop  offset="0.618" style="stop-color:#1B1B1B"/>
	<stop  offset="0.6292" style="stop-color:#545454"/>
	<stop  offset="0.9831" style="stop-color:#3E3E3E"/>
</linearGradient>
<g id="fond-logo">
	<rect class="st0" width="364" height="206"/>
</g>
<g id="forme-fond">
	<rect x="18.25" y="49" class="st1" width="126.77" height="152"/>
	<rect x="132" y="4" class="st1" width="229" height="150"/>
</g>
<g id="contour-bas-gauche">
</g>
<g id="Calque_7">
</g>
<g id="E">
	<g>
		<path class="st2" d="M125.16,5v44.13H45.55v11.06h39.81v44.13H45.55v10.95h79.61v44.13l-79.61,0.11H5.74v-2.9
			c-2.15-1.41-3.22-3.46-3.22-6.14v-40.1c0-2.75,1.07-4.84,3.22-6.26V87.55H4.13v-1.9h1.61V20.42l8.67-9.72l-2.12-2.35l-6.55,7.26V5
			h39.81H125.16z M22.57,8.35L6.05,26.56l2.22,2.35L24.69,10.7L22.57,8.35z M15.42,91.35v-1.9H9.07v-2.01H7.36v39.32h1.71V91.35
			H15.42z M16.33,26.56l2.12,2.35L34.97,10.7l-2.22-2.46L16.33,26.56z M26.6,26.56l2.12,2.35L45.15,10.7l-2.12-2.46L26.6,26.56z
			 M38.9,28.91L55.43,10.7l-2.12-2.46L36.78,26.56L38.9,28.91z M73.77,130.23v10.28h7.96v-10.28H73.77z M84.95,130.23v10.28h4.74
			v-10.28H84.95z M91.3,130.23v10.28h1.51v-10.28H91.3z M96.74,130.23v10.28h2.52v-10.28H96.74z M100.27,130.23v10.28h21.16v-10.28
			H100.27z M122.24,130.23v10.28h2.82v-10.28H122.24z"/>
	</g>
</g>
<g id="T">
	<g>
		<path class="st2" d="M263.01,41.44l42.32,10.17l-11.66,36.75l-30.14-7.24l-2.82,8.9l-12.18-2.93l-19.75,62.29l6.31,1.51
			l-1.06,3.35l-7.91-1.9l-2.57,8.09l1.6,0.38l-12.72,40.47l-42.32-10.17l5.13-16.18l-4.12,2.49l-3.16-6.36l10.58-6.54l0.88-2.77
			l-4.16,2.61l-3.16-6.36l10.62-6.65l0.88-2.77l-4.16,2.61l-3.16-6.36l10.58-6.54l0.88-2.77l-4.16,2.61l-3.16-6.36l10.62-6.65
			l0.88-2.77l-4.16,2.61l-3.16-6.36l10.62-6.65l0.84-2.66l-4.16,2.61l-3.16-6.36l10.62-6.65l0.88-2.77l-4.16,2.61l-3.16-6.36
			l10.62-6.65l0.84-2.66l-4.12,2.49l-3.16-6.36l5.17-3.24l-38.05-9.14l14.48-45.65L220.8,31.3l11.12,2.67l-3.01,9.48l13.79,3.31
			l-0.59,1.85L193.37,36.9l-2.38,7.51l48.73,11.71l-0.84,2.66l3.53,0.85l3.81-12.02l8.87,2.13l3.01-9.48L263.01,41.44z
			 M220.23,159.64l2.57-8.09l-8.98-2.16l-2.57,8.09L220.23,159.64z M290.85,97.26l-29.28-7.04l2.57-8.09l29.28,7.04L290.85,97.26z"
			/>
	</g>
</g>
<g id="lec">
	<g>
		<path class="st0" d="M30.47,75.61l-0.11,0.02l3.09,15.99h-8.1V71.87c-0.48-0.09-0.88-0.26-1.2-0.52
			c-0.31-0.26-0.47-0.54-0.47-0.85v-7.95c0-0.31,0.16-0.59,0.47-0.84c0.31-0.25,0.71-0.42,1.2-0.51V61H39.7v13.31L30.47,75.61z
			 M26.04,66.34v0.18H32v-1.99h-5.96v0.18h5.67v1.64H26.04z M68.4,87.24h4v1.4H54.2v0.75H68.4v2.24H39.7h-6l-3.05-15.86l9.05-1.28
			v5.14h-1.67v1.57h4.29v-3.99h1.16v3.99h5.49v0.62h-5.49v1.04l24.93,0.02V87.24z M42.32,82.86v-1.04H39.7v1.04H42.32z"/>
		<path class="st0" d="M117.09,61v8.75h-28.7v2.19h14.35v8.75H88.39v2.17h28.7v8.75l-28.7,0.02H74.04v-0.58
			c-0.78-0.28-1.16-0.69-1.16-1.22v-7.95c0-0.55,0.39-0.96,1.16-1.24v-3.28h-0.58v-0.38h0.58V64.06l3.12-1.93l-0.76-0.47l-2.36,1.44
			V61h14.35H117.09z M80.1,61.66l-5.96,3.61l0.8,0.46l5.92-3.61L80.1,61.66z M77.52,78.12v-0.38h-2.29v-0.4h-0.62v7.79h0.62v-7.02
			H77.52z M77.85,65.27l0.76,0.46l5.96-3.61l-0.8-0.49L77.85,65.27z M81.56,65.27l0.76,0.46l5.92-3.61l-0.76-0.49L81.56,65.27z
			 M85.99,65.74l5.96-3.61l-0.76-0.49l-5.96,3.63L85.99,65.74z M98.56,85.82v2.04h2.87v-2.04H98.56z M102.6,85.82v2.04h1.71v-2.04
			H102.6z M104.88,85.82v2.04h0.55v-2.04H104.88z M106.85,85.82v2.04h0.91v-2.04H106.85z M108.12,85.82v2.04h7.63v-2.04H108.12z
			 M116.04,85.82v2.04h1.02v-2.04H116.04z"/>
		<path class="st0" d="M136.28,81.57c1.24,0.77,2.8,1.19,4.69,1.26l-6.76,8.02c-4.24-0.92-7.7-2.5-10.37-4.75
			c-2.68-2.25-4.02-4.79-4.02-7.61v-0.07h12.43V77.7h-12.43v-0.42h5.09v-0.84h-7.85v-0.84h2.76v-1.48c0-1.79,0.55-3.48,1.65-5.07
			c1.1-1.59,2.65-3,4.63-4.21c0.34-0.21,0.69-0.4,1.05-0.58l24.16,6.27l-2.83,3.41c-0.07-1.12-0.76-2.08-2.07-2.88
			c-1.41-0.86-3.1-1.28-5.09-1.28c-1.99,0-3.68,0.42-5.07,1.27c-1.39,0.85-2.09,1.88-2.09,3.09v4.36
			C134.17,79.69,134.87,80.72,136.28,81.57z M151.65,70.52l0.07-0.09l-24.34-6.29c4.02-2.1,8.67-3.14,13.95-3.14
			c4.19,0,8.07,0.69,11.63,2.08h-1.42l0.87,1.13l0.87-1.13l0.07-0.11l0.36,0.11l0.36-0.11l0.07,0.11l0.87,1.13l0.84-1.13l0.07-0.11
			l0.36,0.11l0.36-0.11l0.07,0.11l0.87,1.13l0.87-1.13l0.07-0.11l0.36,0.11l0.36,0.11l-0.36,0.46l-0.84,1.13l-0.47,0.58l-0.44-0.58
			l-0.87-1.13l-0.84,1.13h1.02c2.01,1.21,3.58,2.62,4.71,4.23c1.13,1.61,1.69,3.31,1.69,5.09l-14.28,0.02L151.65,70.52z
			 M160.62,84.3h-6.18v1.53h4.76c-0.75,0.69-1.62,1.34-2.62,1.95c-1.99,1.21-4.29,2.16-6.92,2.83c-2.63,0.68-5.41,1.02-8.34,1.02
			c-2.25,0-4.54-0.24-6.87-0.71l6.79-8.06h0.07c1.99,0,3.68-0.42,5.07-1.27c1.39-0.85,2.09-1.88,2.09-3.09h14.39
			C162.88,80.5,162.12,82.44,160.62,84.3z M143.25,63.66v1.13h0.87L143.25,63.66z M143.69,63.08l0.87,1.13l0.87-1.13H143.69z
			 M145.03,64.79h1.71l-0.87-1.13L145.03,64.79z M146.31,63.08l0.87,1.13l0.87-1.13H146.31z M147.61,64.79h1.74l-0.87-1.13
			L147.61,64.79z M148.92,63.08l0.87,1.13l0.87-1.13H148.92z M150.23,64.79h1.74l-0.87-1.13L150.23,64.79z M153.72,63.66l-0.87,1.13
			h1.71L153.72,63.66z M155.54,84.61h10.17v0.91h-10.17V84.61z M165.56,85.4v-0.69h-9.88v0.69H165.56z"/>
	</g>
</g>
<g id="ravaux">
	<g>
		<path class="st0" d="M149.15,143.16h8.89v0.86h-2.08l1.74,4.35h-14.37l-4.24-10.65h-1.22v-0.84h0.87l-0.76-1.89h-4.48v-0.68h-3.99
			v0.81h0.76v13.24h-13.71v-4.7h-3.89v-1.27h3.89v-19.14l-2.05-0.76l2.05-0.76v-0.43l-2.05-0.76l2.05-0.73v-0.46l-2.05-0.73
			l2.05-0.76v-0.46l-2.05-0.73l2.05-0.76v-0.46l-2.05-0.73l2.05-0.76v-0.43l-2.05-0.76l2.05-0.76V111h25.73
			c4.4,0,8.12,1.24,11.18,3.73h-4.27v2.51h6.63c1.25,1.75,1.88,3.67,1.88,5.76c0,1.95-0.56,3.76-1.68,5.45
			c-1.12,1.69-2.66,3.09-4.6,4.2l3.99,10.03h-6.56v0.84h0.31V143.16z M116.54,143.51v-0.95h-3.68v0.95H116.54z M142.27,124.32
			c0.46,0,0.86-0.13,1.2-0.39c0.34-0.26,0.5-0.57,0.5-0.93c0-0.09-0.02-0.21-0.07-0.35l-0.21-0.16l-0.35-0.3l-0.76,0.62l-0.42-0.32
			l-0.42,0.32l-0.73-0.62l-0.73,0.62l-0.42-0.32l-0.42,0.32l-0.76-0.62l-0.28,0.24l-0.45,0.38l-0.83-0.62l0.49-0.41l0.31-0.24
			l-0.31-0.24c-0.05,0.11-0.07,0.19-0.07,0.24c0,0.02,0.01,0.04,0.02,0.07c0.01,0.03,0.02,0.05,0.02,0.07h-7.33v2.65H142.27z
			 M138.77,120.59c-0.09,0-0.21,0.02-0.35,0.05l0.28,0.24l0.38-0.3H138.77z M139.88,121.24l-0.38,0.3l0.38,0.3l0.35-0.3
			L139.88,121.24z M141.4,120.59h-0.76l0.38,0.3L141.4,120.59z M142.17,121.24l-0.35,0.3l0.35,0.3l0.38-0.3L142.17,121.24z
			 M143.73,120.59h-0.76l0.38,0.3L143.73,120.59z M144.49,121.84l0.38-0.3l-0.38-0.3l-0.38,0.3L144.49,121.84z M146.02,120.59h-0.73
			l0.38,0.3L146.02,120.59z M145.29,122.49h0.73l-0.35-0.3L145.29,122.49z M146.82,121.84l0.38-0.3l-0.38-0.3l-0.38,0.3
			L146.82,121.84z M155.71,144.84v-0.81h-6.56V144h-1.94v0.84H155.71z M148.35,120.59h-0.73l0.35,0.3L148.35,120.59z M147.97,122.19
			l-0.35,0.3h0.73L147.97,122.19z M149.15,121.24l-0.38,0.3l0.38,0.3l0.35-0.3L149.15,121.24z M150.22,120.59h-0.31l0.38,0.3
			l0.31-0.24C150.47,120.61,150.34,120.59,150.22,120.59z M150.29,122.19l-0.38,0.3h0.31c0.12,0,0.24-0.02,0.38-0.05L150.29,122.19z
			 M151.4,121.3l-0.31,0.24l0.31,0.24c0.02-0.05,0.03-0.13,0.03-0.24S151.43,121.35,151.4,121.3z"/>
		<path class="st0" d="M159.87,148.38l6.8-19.57l10.31,18.51l-1.22-1.46l-1.21,1.51l-0.07-0.08l-0.38,1.08H159.87z M197.58,138.7
			h4.17v2.32h-3.37l0.35,1.03h-5.42v-1.03h-0.28v1.24h5.76l2.12,6.11h-14.2l-0.83-2.38l-0.1-0.14l-1.25,1.51l-1.25-1.51l-1.25,1.49
			l-1.25-1.49l-1.25,1.51l-1.25-1.51l-1.08,1.3l-10.42-18.68l3.47-10.03l21.73,4.19L197.58,138.7z M189.59,115.7l2.33,6.73
			l-21.6-4.16l2.53-7.27h0.8h6.74h6.77h0.8l0.94,2.7l0.31-0.22l0.73,0.59l0.38-0.3l0.38-0.3l0.42,0.3l0.42-0.3l0.73,0.59l0.31-0.24
			l0.42-0.35l0.83,0.59l-0.49,0.41l-0.28,0.24l0.28,0.27l0.49,0.38L193,116l-0.42-0.38l-0.31-0.24L191.5,116l-0.38-0.3l-0.42,0.3
			l-0.76-0.62L189.59,115.7z M178.76,135.03h3.26l-0.76-2.24h-7.74v-0.05h-1.91v0.86h7.67L178.76,135.03z M173.21,131.43v0.84h0.31
			v-0.35h8.19v-0.49h-0.94l-0.38-1.08l-0.38,1.08H173.21z M179.59,115l0.28-0.27l-0.28-0.24c-0.05,0.11-0.07,0.19-0.07,0.24
			C179.53,114.8,179.55,114.89,179.59,115z M180.67,114.08l0.38-0.3h-0.31c-0.12,0-0.24,0.02-0.38,0.05L180.67,114.08z
			 M180.74,115.7l0.31-0.03l-0.38-0.3l-0.31,0.24C180.57,115.68,180.69,115.7,180.74,115.7z M181.85,115.05l0.35-0.32l-0.35-0.3
			l-0.38,0.3L181.85,115.05z M183,114.08l0.38-0.3h-0.76L183,114.08z M182.62,115.7h0.76l-0.38-0.32L182.62,115.7z M184.14,115.05
			l0.38-0.32l-0.38-0.3l-0.35,0.3L184.14,115.05z M185.32,114.08l0.35-0.3h-0.73L185.32,114.08z M184.94,115.7h0.73l-0.35-0.32
			L184.94,115.7z M186.47,115.05l0.38-0.32l-0.38-0.3l-0.38,0.3L186.47,115.05z M187.61,114.08l0.38-0.3h-0.73L187.61,114.08z
			 M187.27,115.7H188l-0.38-0.32L187.27,115.7z M188.79,115.05l0.38-0.32l-0.38-0.3l-0.38,0.3L188.79,115.05z M191.12,114.43
			l-0.38,0.3l0.38,0.32l0.35-0.32L191.12,114.43z M201.47,140.84v-1.92h-3.82l0.31,0.92h-4.93v1h0.28v-0.81h4.72l0.28,0.81H201.47z"
			/>
		<path class="st0" d="M231.4,113.62h8.89v0.87h-8.89v-0.03h-1.91v0.84h6.49l-6.01,17.27c0.42,0.22,0.72,0.5,0.9,0.85
			c0.19,0.35,0.21,0.71,0.07,1.07l-1.08,3.16l-0.14,0.43l0.38,0.32l0.87-0.76l0.14-0.08l0.14,0.08l0.14-0.08l0.1,0.08l0.9,0.76
			l0.9-0.76l0.14-0.08l0.28,0.19l-0.14,0.11l-0.9,0.76l0.9,0.73l0.14,0.11l-0.28,0.22l-0.14-0.11l-0.9-0.73l-0.9,0.73l-0.1,0.11
			l-0.14-0.11l-0.14,0.11l-0.14-0.11l-0.87-0.73l-0.9,0.7v0.03l-1.46,4.3c-0.14,0.38-0.41,0.69-0.8,0.92
			c-0.39,0.23-0.85,0.36-1.35,0.38l-1.11,3.22h-0.8h-6.74h-6.77h-0.8l-11.04-31.87h7.67v-2.43h-8.54L196.4,111h14.23l5.62,16.03
			h-5.1v0.84h0.35v-0.35h8.16v-0.49h-2.01l5.59-16.03h14.23l-0.76,2.13h-5.62v0.84h0.31V113.62z M205.77,114.3v2.03h-7.5l-0.73-2.03
			H205.77z M218.03,129.19v-0.81h-6.56v-0.03h-1.91v0.84H218.03z M219.66,137.89v1.46l0.9-0.73L219.66,137.89z M221.71,137.67h-1.77
			l0.87,0.73L221.71,137.67z M219.94,139.57h1.77l-0.9-0.73L219.94,139.57z M221.08,138.62l0.9,0.73l0.9-0.73l-0.9-0.73
			L221.08,138.62z M224.04,137.67h-1.81l0.9,0.73L224.04,137.67z M222.23,139.57h1.81l-0.9-0.73L222.23,139.57z M224.31,139.35
			l0.87-0.73l-0.87-0.73l-0.9,0.73L224.31,139.35z M226.36,137.67h-1.81l0.9,0.73L226.36,137.67z M224.56,139.57h1.81l-0.9-0.73
			L224.56,139.57z M227.06,138.97l0.21-0.57l-0.66-0.51l-0.87,0.73l0.87,0.73L227.06,138.97z M227.37,138.08l0.14-0.41h-0.62
			L227.37,138.08z M229.59,138.43l-0.17,0.51l0.42-0.32L229.59,138.43z M231.26,137.89l-0.9,0.73l0.9,0.73l0.9-0.73L231.26,137.89z"
			/>
		<path class="st0" d="M232.37,148.38l6.81-19.57l10.31,18.51l-1.21-1.46l-1.21,1.51l-0.07-0.08l-0.38,1.08H232.37z M270.07,138.7
			h4.17v2.32h-3.37l0.35,1.03h-5.42v-1.03h-0.28v1.24h5.76l2.12,6.11h-14.2l-0.83-2.38l-0.1-0.14l-1.25,1.51l-1.25-1.51l-1.25,1.49
			l-1.25-1.49l-1.25,1.51l-1.25-1.51l-1.08,1.3l-10.42-18.68l3.47-10.03l21.73,4.19L270.07,138.7z M262.09,115.7l2.33,6.73
			l-21.6-4.16l2.54-7.27h0.8h6.74h6.77h0.8l0.94,2.7l0.31-0.22l0.73,0.59l0.38-0.3l0.38-0.3l0.42,0.3l0.42-0.3l0.73,0.59l0.31-0.24
			l0.42-0.35l0.83,0.59l-0.49,0.41l-0.28,0.24l0.28,0.27l0.49,0.38l-0.83,0.62l-0.42-0.38l-0.31-0.24L264,116l-0.38-0.3l-0.42,0.3
			l-0.76-0.62L262.09,115.7z M251.25,135.03h3.26l-0.76-2.24h-7.74v-0.05h-1.91v0.86h7.67L251.25,135.03z M245.7,131.43v0.84h0.31
			v-0.35h8.19v-0.49h-0.94l-0.38-1.08l-0.38,1.08H245.7z M252.09,115l0.28-0.27l-0.28-0.24c-0.05,0.11-0.07,0.19-0.07,0.24
			C252.02,114.8,252.04,114.89,252.09,115z M253.16,114.08l0.38-0.3h-0.31c-0.12,0-0.24,0.02-0.38,0.05L253.16,114.08z
			 M253.23,115.7l0.31-0.03l-0.38-0.3l-0.31,0.24C253.06,115.68,253.19,115.7,253.23,115.7z M254.34,115.05l0.35-0.32l-0.35-0.3
			l-0.38,0.3L254.34,115.05z M255.49,114.08l0.38-0.3h-0.76L255.49,114.08z M255.11,115.7h0.76l-0.38-0.32L255.11,115.7z
			 M256.64,115.05l0.38-0.32l-0.38-0.3l-0.35,0.3L256.64,115.05z M257.82,114.08l0.35-0.3h-0.73L257.82,114.08z M257.43,115.7h0.73
			l-0.35-0.32L257.43,115.7z M258.96,115.05l0.38-0.32l-0.38-0.3l-0.38,0.3L258.96,115.05z M260.11,114.08l0.38-0.3h-0.73
			L260.11,114.08z M259.76,115.7h0.73l-0.38-0.32L259.76,115.7z M261.29,115.05l0.38-0.32l-0.38-0.3l-0.38,0.3L261.29,115.05z
			 M263.61,114.43l-0.38,0.3l0.38,0.32l0.35-0.32L263.61,114.43z M273.96,140.84v-1.92h-3.82l0.31,0.92h-4.93v1h0.28v-0.81h4.72
			l0.28,0.81H273.96z"/>
		<path class="st0" d="M319.2,128.38v1.7h-8.47V131h4.86v1.35c0,2.18-0.53,4.24-1.58,6.19c-1.05,1.95-2.53,3.66-4.43,5.13
			c-1.9,1.48-4.1,2.63-6.6,3.46c-2.5,0.83-5.15,1.24-7.95,1.24c-4.21,0-8.08-0.94-11.6-2.81v1.84h-0.28v-4.46h-1.01v1.89
			c-2.38-1.51-4.26-3.35-5.64-5.51c-1.38-2.16-2.07-4.49-2.07-6.97v-16h5.21v-0.92h-8.51v-1.7h3.3V111h13.71v21.35
			c0,1.46,0.67,2.71,2.01,3.76c1.34,1.05,2.96,1.57,4.86,1.57c1.9,0,3.51-0.52,4.84-1.55s2-2.29,2-3.77v-9.54l-0.1,0.08l-0.38-0.32
			l-0.35-0.3l-0.38,0.3l-0.38,0.32l-0.42-0.32l-0.42,0.32l-0.35-0.32l-0.38-0.3l-0.31,0.24l-0.45,0.38l-0.42-0.32l-0.38-0.3
			l0.45-0.41l0.31-0.24l-0.31-0.24l-0.45-0.41l0.38-0.3l0.42-0.32l0.45,0.38l0.31,0.24l0.73-0.62l0.42,0.32l0.42-0.32l0.76,0.62
			l0.73-0.62l0.1,0.08V111h13.71v17.38H319.2z M290.73,145.43v-2.49h-7.29v2.49H290.73z M291.95,145.43v-2.49h-0.87v2.49H291.95z
			 M293.82,145.43v-2.49h-0.52v2.49H293.82z M296.01,145.43v-2.49h-1.63v2.49H296.01z M299.86,145.43v-2.49h-2.74v2.49H299.86z
			 M299.86,121.92l0.38-0.3l-0.38-0.3l-0.38,0.3L299.86,121.92z M302.19,121.92l0.38-0.3l-0.38-0.3l-0.38,0.3L302.19,121.92z
			 M303.33,120.97l0.38-0.3h-0.73L303.33,120.97z M302.99,122.57h0.73l-0.38-0.3L302.99,122.57z M304.51,121.92l0.35-0.3l-0.35-0.3
			l-0.38,0.3L304.51,121.92z M305.66,120.97l0.38-0.3h-0.76L305.66,120.97z M305.28,122.57h0.76l-0.38-0.3L305.28,122.57z
			 M306.8,121.92l0.38-0.3l-0.38-0.3l-0.35,0.3L306.8,121.92z M307.99,120.97l0.38-0.3h-0.76L307.99,120.97z M307.6,122.57h0.76
			l-0.38-0.3L307.6,122.57z M309.13,121.92l0.38-0.3l-0.38-0.3l-0.38,0.3L309.13,121.92z M310.31,120.97l0.28-0.24
			c-0.14-0.04-0.25-0.05-0.35-0.05h-0.31L310.31,120.97z M310.24,122.57c0.09,0,0.21-0.02,0.35-0.05l-0.28-0.24l-0.38,0.3H310.24z
			 M311.39,121.38l-0.31,0.24l0.31,0.24c0.05-0.11,0.07-0.19,0.07-0.24S311.43,121.49,311.39,121.38z"/>
		<path class="st0" d="M320.62,114.95v-1.89h-2.53v-0.78h1.11l-0.87-1.27h2.29h1.11h12.15l4.96,7.3l5-7.3h11.46l-26.84,14.81
			l-6.74-9.81v1.92h-1.11V114.95z M347.5,141.81v2.46h9.1l2.81,4.11l-15.55-0.03l-4.96-7.27l-5,7.27l-3.06,0.03l-4.86-10.24h-0.28
			l4.86,10.24h-12.22l7.01-10.24h-3.82v-0.87h4.38l5.21-7.59l-2.54-3.67l27.15-15h3.68l-12.05,17.65h-1.63l0.83,1.38l0.8-1.38
			l0.1-0.14l0.35,0.14l0.35-0.14l0.07,0.14l0.83,1.38l0.8-1.38l0.07-0.14l0.69,0.24l-0.35,0.59l-0.8,1.38l-0.42,0.7l-0.42-0.7
			l-0.83-1.38l-0.83,1.38h0.38l7.57,11.08H347.5z M321.73,113.05v1.89h2.92v-1.89H321.73z M335.34,129.35v1.38h0.83L335.34,129.35z
			 M335.76,128.65l0.83,1.38l0.8-1.38H335.76z M337.01,130.73h1.63l-0.8-1.38L337.01,130.73z M338.26,128.65l0.8,1.38l0.83-1.38
			H338.26z M339.51,130.73h1.63l-0.83-1.38L339.51,130.73z M340.73,128.65l0.83,1.38l0.83-1.38H340.73z M341.97,130.73h1.67
			l-0.83-1.38L341.97,130.73z M343.22,128.65l0.83,1.38l0.83-1.38H343.22z M344.47,130.73h1.67l-0.83-1.38L344.47,130.73z
			 M347.77,144.05v-2.03h7.29l1.39,2.03H347.77z"/>
	</g>
</g>
</svg>
